solid Station meteo2
facet normal -0.7933533402906516 -0.6087614290094812 7.585136803969567e-17
  outer loop
    vertex -540.3971530490813 970.7527643586573 10.0
    vertex -540.1587751151844 970.4421041868779 7.049916206369744e-15
    vertex -540.1587751151844 970.4421041868779 10.0
  endloop
endfacet
facet normal -0.7933533402906516 -0.6087614290094812 7.585136803969567e-17
  outer loop
    vertex -540.1587751151844 970.4421041868779 7.049916206369744e-15
    vertex -540.3971530490813 970.7527643586573 10.0
    vertex -540.3971530490813 970.7527643586573 7.049916206369744e-15
  endloop
endfacet
facet normal -0.13052619221896208 0.9914448613739538 -1.2353353134330983e-16
  outer loop
    vertex -501.45781322086117 968.1921041868778 10.0
    vertex -501.0695846532074 968.2432154474437 7.049916206369744e-15
    vertex -501.45781322086117 968.1921041868778 7.049916206369744e-15
  endloop
endfacet
facet normal -0.13052619221896208 0.9914448613739538 -1.2353353134330983e-16
  outer loop
    vertex -501.0695846532074 968.2432154474437 7.049916206369744e-15
    vertex -501.45781322086117 968.1921041868778 10.0
    vertex -501.0695846532074 968.2432154474437 10.0
  endloop
endfacet
facet normal 0.13052619222077427 -0.9914448613737153 1.235335313432801e-16
  outer loop
    vertex -541.4578132208611 971.192104186878 10.0
    vertex -541.8460417885149 971.1409929263114 7.049916206369744e-15
    vertex -541.4578132208611 971.192104186878 7.049916206369744e-15
  endloop
endfacet
facet normal 0.13052619222077427 -0.9914448613737153 1.235335313432801e-16
  outer loop
    vertex -541.8460417885149 971.1409929263114 7.049916206369744e-15
    vertex -541.4578132208611 971.192104186878 10.0
    vertex -541.8460417885149 971.1409929263114 10.0
  endloop
endfacet
facet normal -0.6087614290098288 -0.7933533402903851 9.885142739381848e-17
  outer loop
    vertex -540.3971530490813 970.7527643586573 10.0
    vertex -540.7078132208611 970.9911422925547 7.049916206369744e-15
    vertex -540.3971530490813 970.7527643586573 7.049916206369744e-15
  endloop
endfacet
facet normal -0.6087614290098288 -0.7933533402903851 9.885142739381848e-17
  outer loop
    vertex -540.7078132208611 970.9911422925547 7.049916206369744e-15
    vertex -540.3971530490813 970.7527643586573 10.0
    vertex -540.7078132208611 970.9911422925547 10.0
  endloop
endfacet
facet normal 0.9914448613737773 0.13052619222030346 -1.6263497937166623e-17
  outer loop
    vertex -502.9578132208612 969.6921041868775 7.049916206369744e-15
    vertex -502.9067019602948 969.3038756192243 10.0
    vertex -502.9067019602948 969.3038756192243 7.049916206369744e-15
  endloop
endfacet
facet normal 0.9914448613737773 0.13052619222030346 -1.6263497937166623e-17
  outer loop
    vertex -502.9067019602948 969.3038756192243 10.0
    vertex -502.9578132208612 969.6921041868775 7.049916206369744e-15
    vertex -502.9578132208612 969.6921041868775 10.0
  endloop
endfacet
facet normal 0.9238795325114652 0.382683432364659 -4.768216330363739e-17
  outer loop
    vertex -502.9067019602948 969.3038756192243 7.049916206369744e-15
    vertex -502.75685132653786 968.9421041868776 10.0
    vertex -502.75685132653786 968.9421041868776 7.049916206369744e-15
  endloop
endfacet
facet normal 0.9238795325114652 0.382683432364659 -4.768216330363739e-17
  outer loop
    vertex -502.75685132653786 968.9421041868776 10.0
    vertex -502.9067019602948 969.3038756192243 7.049916206369744e-15
    vertex -502.9067019602948 969.3038756192243 10.0
  endloop
endfacet
facet normal 0.13052619221896208 0.9914448613739538 -1.2353353134330983e-16
  outer loop
    vertex -501.846041788515 968.2432154474437 10.0
    vertex -501.45781322086117 968.1921041868778 7.049916206369744e-15
    vertex -501.846041788515 968.2432154474437 7.049916206369744e-15
  endloop
endfacet
facet normal 0.13052619221896208 0.9914448613739538 -1.2353353134330983e-16
  outer loop
    vertex -501.45781322086117 968.1921041868778 7.049916206369744e-15
    vertex -501.846041788515 968.2432154474437 10.0
    vertex -501.45781322086117 968.1921041868778 10.0
  endloop
endfacet
facet normal 0.9914448613738096 -0.13052619222005804 1.1010501369241416e-20
  outer loop
    vertex -502.91496812912834 970.0175449686177 1.4099832412739487e-15
    vertex -502.9578132208612 969.6921041868775 10.0
    vertex -502.9578132208612 969.6921041868775 7.049916206369744e-15
  endloop
endfacet
facet normal 0.9914448613738096 -0.13052619222005804 1.1010501369241416e-20
  outer loop
    vertex -502.9578132208612 969.6921041868775 10.0
    vertex -502.91496812912834 970.0175449686177 1.4099832412739487e-15
    vertex -502.91496812912834 970.0175449686177 9.999999999999977
  endloop
endfacet
facet normal 0.9914448613738096 -0.13052619222005804 1.1010501369241416e-20
  outer loop
    vertex -502.91496812912834 970.0175449686177 9.999999999999977
    vertex -502.91496812912834 970.0175449686177 1.4099832412739487e-15
    vertex -502.9067019602948 970.0803327545314 7.049916206369744e-15
  endloop
endfacet
facet normal 0.9914448613738096 -0.13052619222005804 1.1010501369241416e-20
  outer loop
    vertex -502.91496812912834 970.0175449686177 9.999999999999977
    vertex -502.9067019602948 970.0803327545314 7.049916206369744e-15
    vertex -502.9067019602948 970.0803327545314 10.0
  endloop
endfacet
facet normal -0.6087614290083783 0.793353340291498 -9.885142739395715e-17
  outer loop
    vertex -540.7078132208611 968.393066081201 10.0
    vertex -540.3971530490813 968.6314440150976 7.049916206369744e-15
    vertex -540.7078132208611 968.393066081201 7.049916206369744e-15
  endloop
endfacet
facet normal -0.6087614290083783 0.793353340291498 -9.885142739395715e-17
  outer loop
    vertex -540.3971530490813 968.6314440150976 7.049916206369744e-15
    vertex -540.7078132208611 968.393066081201 10.0
    vertex -540.3971530490813 968.6314440150976 10.0
  endloop
endfacet
facet normal 0.38268343236585317 0.9238795325109705 -1.1511492533102025e-16
  outer loop
    vertex -542.2078132208611 968.393066081201 10.0
    vertex -541.8460417885149 968.2432154474437 7.049916206369744e-15
    vertex -542.2078132208611 968.393066081201 7.049916206369744e-15
  endloop
endfacet
facet normal 0.38268343236585317 0.9238795325109705 -1.1511492533102025e-16
  outer loop
    vertex -541.8460417885149 968.2432154474437 7.049916206369744e-15
    vertex -542.2078132208611 968.393066081201 10.0
    vertex -541.8460417885149 968.2432154474437 10.0
  endloop
endfacet
facet normal -0.7933533402913349 0.6087614290085908 -7.585136803958472e-17
  outer loop
    vertex -540.1587751151844 968.9421041868776 10.0
    vertex -540.3971530490813 968.6314440150976 7.049916206369744e-15
    vertex -540.3971530490813 968.6314440150976 10.0
  endloop
endfacet
facet normal -0.7933533402913349 0.6087614290085908 -7.585136803958472e-17
  outer loop
    vertex -540.3971530490813 968.6314440150976 7.049916206369744e-15
    vertex -540.1587751151844 968.9421041868776 10.0
    vertex -540.1587751151844 968.9421041868776 7.049916206369744e-15
  endloop
endfacet
facet normal 0.9914448613737773 0.13052619222030346 -1.6263497937166613e-17
  outer loop
    vertex -542.9578132208611 969.6921041868775 7.049916206369744e-15
    vertex -542.9067019602948 969.3038756192243 10.0
    vertex -542.9067019602948 969.3038756192243 7.049916206369744e-15
  endloop
endfacet
facet normal 0.9914448613737773 0.13052619222030346 -1.6263497937166613e-17
  outer loop
    vertex -542.9067019602948 969.3038756192243 10.0
    vertex -542.9578132208611 969.6921041868775 7.049916206369744e-15
    vertex -542.9578132208611 969.6921041868775 10.0
  endloop
endfacet
facet normal -0.38268343236427954 -0.9238795325116222 1.1511492533110145e-16
  outer loop
    vertex -540.7078132208611 970.9911422925547 10.0
    vertex -541.0695846532074 971.1409929263114 7.049916206369744e-15
    vertex -540.7078132208611 970.9911422925547 7.049916206369744e-15
  endloop
endfacet
facet normal -0.38268343236427954 -0.9238795325116222 1.1511492533110145e-16
  outer loop
    vertex -541.0695846532074 971.1409929263114 7.049916206369744e-15
    vertex -540.7078132208611 970.9911422925547 10.0
    vertex -541.0695846532074 971.1409929263114 10.0
  endloop
endfacet
facet normal 0.13052619221896208 0.9914448613739538 -1.235335313433098e-16
  outer loop
    vertex -541.8460417885149 968.2432154474437 10.0
    vertex -541.4578132208611 968.1921041868778 7.049916206369744e-15
    vertex -541.8460417885149 968.2432154474437 7.049916206369744e-15
  endloop
endfacet
facet normal 0.13052619221896208 0.9914448613739538 -1.235335313433098e-16
  outer loop
    vertex -541.4578132208611 968.1921041868778 7.049916206369744e-15
    vertex -541.8460417885149 968.2432154474437 10.0
    vertex -541.4578132208611 968.1921041868778 10.0
  endloop
endfacet
facet normal 0.7933533402913349 0.6087614290085908 -7.585136803958472e-17
  outer loop
    vertex -542.7568513265378 968.9421041868776 7.049916206369744e-15
    vertex -542.5184733926409 968.6314440150976 10.0
    vertex -542.5184733926409 968.6314440150976 7.049916206369744e-15
  endloop
endfacet
facet normal 0.7933533402913349 0.6087614290085908 -7.585136803958472e-17
  outer loop
    vertex -542.5184733926409 968.6314440150976 10.0
    vertex -542.7568513265378 968.9421041868776 7.049916206369744e-15
    vertex -542.7568513265378 968.9421041868776 10.0
  endloop
endfacet
facet normal 0.9238795325114652 -0.382683432364659 4.768216330363738e-17
  outer loop
    vertex -542.7568513265378 970.4421041868779 7.049916206369744e-15
    vertex -542.9067019602948 970.0803327545314 10.0
    vertex -542.9067019602948 970.0803327545314 7.049916206369744e-15
  endloop
endfacet
facet normal 0.9238795325114652 -0.382683432364659 4.768216330363738e-17
  outer loop
    vertex -542.9067019602948 970.0803327545314 10.0
    vertex -542.7568513265378 970.4421041868779 7.049916206369744e-15
    vertex -542.7568513265378 970.4421041868779 10.0
  endloop
endfacet
facet normal -0.9914448613738096 -0.13052619222005804 1.2659378338849032e-19
  outer loop
    vertex -540.0006583125939 970.0175449686177 9.999999999999977
    vertex -539.9578132208611 969.6921041868775 7.049916206369744e-15
    vertex -539.9578132208611 969.6921041868775 10.0
  endloop
endfacet
facet normal -0.9914448613738096 -0.13052619222005804 1.2659378338849032e-19
  outer loop
    vertex -539.9578132208611 969.6921041868775 7.049916206369744e-15
    vertex -540.0006583125939 970.0175449686177 9.999999999999977
    vertex -540.0006583125939 970.0175449686177 1.4099832412739487e-15
  endloop
endfacet
facet normal -0.9914448613738096 -0.13052619222005804 1.2659378338849032e-19
  outer loop
    vertex -540.0006583125939 970.0175449686177 1.4099832412739487e-15
    vertex -540.0006583125939 970.0175449686177 9.999999999999977
    vertex -540.0089244814275 970.0803327545314 10.0
  endloop
endfacet
facet normal -0.9914448613738096 -0.13052619222005804 1.2659378338849032e-19
  outer loop
    vertex -540.0006583125939 970.0175449686177 1.4099832412739487e-15
    vertex -540.0089244814275 970.0803327545314 10.0
    vertex -540.0089244814275 970.0803327545314 7.049916206369744e-15
  endloop
endfacet
facet normal 0.9914448613738096 -0.13052619222005804 1.1010501369241416e-20
  outer loop
    vertex -542.9149681291283 970.0175449686177 1.4099832412739487e-15
    vertex -542.9578132208611 969.6921041868775 10.0
    vertex -542.9578132208611 969.6921041868775 7.049916206369744e-15
  endloop
endfacet
facet normal 0.9914448613738096 -0.13052619222005804 1.1010501369241416e-20
  outer loop
    vertex -542.9578132208611 969.6921041868775 10.0
    vertex -542.9149681291283 970.0175449686177 1.4099832412739487e-15
    vertex -542.9149681291283 970.0175449686177 9.999999999999977
  endloop
endfacet
facet normal 0.9914448613738096 -0.13052619222005804 1.1010501369241416e-20
  outer loop
    vertex -542.9149681291283 970.0175449686177 9.999999999999977
    vertex -542.9149681291283 970.0175449686177 1.4099832412739487e-15
    vertex -542.9067019602948 970.0803327545314 7.049916206369744e-15
  endloop
endfacet
facet normal 0.9914448613738096 -0.13052619222005804 1.1010501369241416e-20
  outer loop
    vertex -542.9149681291283 970.0175449686177 9.999999999999977
    vertex -542.9067019602948 970.0803327545314 7.049916206369744e-15
    vertex -542.9067019602948 970.0803327545314 10.0
  endloop
endfacet
facet normal -0.9238795325114652 0.382683432364659 -4.768216330363738e-17
  outer loop
    vertex -540.0089244814275 969.3038756192243 10.0
    vertex -540.1587751151844 968.9421041868776 7.049916206369744e-15
    vertex -540.1587751151844 968.9421041868776 10.0
  endloop
endfacet
facet normal -0.9238795325114652 0.382683432364659 -4.768216330363738e-17
  outer loop
    vertex -540.1587751151844 968.9421041868776 7.049916206369744e-15
    vertex -540.0089244814275 969.3038756192243 10.0
    vertex -540.0089244814275 969.3038756192243 7.049916206369744e-15
  endloop
endfacet
facet normal 0.6087614290098288 -0.7933533402903851 9.885142739381849e-17
  outer loop
    vertex -502.2078132208612 970.9911422925547 10.0
    vertex -502.518473392641 970.7527643586573 7.049916206369744e-15
    vertex -502.2078132208612 970.9911422925547 7.049916206369744e-15
  endloop
endfacet
facet normal 0.6087614290098288 -0.7933533402903851 9.885142739381849e-17
  outer loop
    vertex -502.518473392641 970.7527643586573 7.049916206369744e-15
    vertex -502.2078132208612 970.9911422925547 10.0
    vertex -502.518473392641 970.7527643586573 10.0
  endloop
endfacet
facet normal -0.38268343236585317 0.9238795325109705 -1.1511492533102025e-16
  outer loop
    vertex -541.0695846532074 968.2432154474437 10.0
    vertex -540.7078132208611 968.393066081201 7.049916206369744e-15
    vertex -541.0695846532074 968.2432154474437 7.049916206369744e-15
  endloop
endfacet
facet normal -0.38268343236585317 0.9238795325109705 -1.1511492533102025e-16
  outer loop
    vertex -540.7078132208611 968.393066081201 7.049916206369744e-15
    vertex -541.0695846532074 968.2432154474437 10.0
    vertex -540.7078132208611 968.393066081201 10.0
  endloop
endfacet
facet normal 0.6087614290098288 -0.7933533402903851 9.885142739381848e-17
  outer loop
    vertex -542.2078132208611 970.9911422925547 10.0
    vertex -542.5184733926409 970.7527643586573 7.049916206369744e-15
    vertex -542.2078132208611 970.9911422925547 7.049916206369744e-15
  endloop
endfacet
facet normal 0.6087614290098288 -0.7933533402903851 9.885142739381848e-17
  outer loop
    vertex -542.5184733926409 970.7527643586573 7.049916206369744e-15
    vertex -542.2078132208611 970.9911422925547 10.0
    vertex -542.5184733926409 970.7527643586573 10.0
  endloop
endfacet
facet normal -0.9914448613737773 0.13052619222030346 -1.626349793716662e-17
  outer loop
    vertex -539.9578132208611 969.6921041868775 10.0
    vertex -540.0089244814275 969.3038756192243 7.049916206369744e-15
    vertex -540.0089244814275 969.3038756192243 10.0
  endloop
endfacet
facet normal -0.9914448613737773 0.13052619222030346 -1.626349793716662e-17
  outer loop
    vertex -540.0089244814275 969.3038756192243 7.049916206369744e-15
    vertex -539.9578132208611 969.6921041868775 10.0
    vertex -539.9578132208611 969.6921041868775 7.049916206369744e-15
  endloop
endfacet
facet normal 0.38268343236427954 -0.9238795325116222 1.1511492533110145e-16
  outer loop
    vertex -501.846041788515 971.1409929263114 10.0
    vertex -502.2078132208612 970.9911422925547 7.049916206369744e-15
    vertex -501.846041788515 971.1409929263114 7.049916206369744e-15
  endloop
endfacet
facet normal 0.38268343236427954 -0.9238795325116222 1.1511492533110145e-16
  outer loop
    vertex -502.2078132208612 970.9911422925547 7.049916206369744e-15
    vertex -501.846041788515 971.1409929263114 10.0
    vertex -502.2078132208612 970.9911422925547 10.0
  endloop
endfacet
facet normal -0.13052619222077427 -0.9914448613737153 1.235335313432801e-16
  outer loop
    vertex -541.0695846532074 971.1409929263114 10.0
    vertex -541.4578132208611 971.192104186878 7.049916206369744e-15
    vertex -541.0695846532074 971.1409929263114 7.049916206369744e-15
  endloop
endfacet
facet normal -0.13052619222077427 -0.9914448613737153 1.235335313432801e-16
  outer loop
    vertex -541.4578132208611 971.192104186878 7.049916206369744e-15
    vertex -541.0695846532074 971.1409929263114 10.0
    vertex -541.4578132208611 971.192104186878 10.0
  endloop
endfacet
facet normal 0.7933533402906516 -0.6087614290094812 7.585136803969567e-17
  outer loop
    vertex -542.5184733926409 970.7527643586573 7.049916206369744e-15
    vertex -542.7568513265378 970.4421041868779 10.0
    vertex -542.7568513265378 970.4421041868779 7.049916206369744e-15
  endloop
endfacet
facet normal 0.7933533402906516 -0.6087614290094812 7.585136803969567e-17
  outer loop
    vertex -542.7568513265378 970.4421041868779 10.0
    vertex -542.5184733926409 970.7527643586573 7.049916206369744e-15
    vertex -542.5184733926409 970.7527643586573 10.0
  endloop
endfacet
facet normal -0.7933533402906516 -0.6087614290094812 7.585136803969568e-17
  outer loop
    vertex -500.3971530490814 970.7527643586573 10.0
    vertex -500.15877511518454 970.4421041868779 7.049916206369744e-15
    vertex -500.15877511518454 970.4421041868779 10.0
  endloop
endfacet
facet normal -0.7933533402906516 -0.6087614290094812 7.585136803969568e-17
  outer loop
    vertex -500.15877511518454 970.4421041868779 7.049916206369744e-15
    vertex -500.3971530490814 970.7527643586573 10.0
    vertex -500.3971530490814 970.7527643586573 7.049916206369744e-15
  endloop
endfacet
facet normal 0.13052619222077427 -0.9914448613737153 1.2353353134328013e-16
  outer loop
    vertex -501.45781322086117 971.192104186878 10.0
    vertex -501.846041788515 971.1409929263114 7.049916206369744e-15
    vertex -501.45781322086117 971.192104186878 7.049916206369744e-15
  endloop
endfacet
facet normal 0.13052619222077427 -0.9914448613737153 1.2353353134328013e-16
  outer loop
    vertex -501.846041788515 971.1409929263114 7.049916206369744e-15
    vertex -501.45781322086117 971.192104186878 10.0
    vertex -501.846041788515 971.1409929263114 10.0
  endloop
endfacet
facet normal 0.38268343236427954 -0.9238795325116222 1.1511492533110145e-16
  outer loop
    vertex -541.8460417885149 971.1409929263114 10.0
    vertex -542.2078132208611 970.9911422925547 7.049916206369744e-15
    vertex -541.8460417885149 971.1409929263114 7.049916206369744e-15
  endloop
endfacet
facet normal 0.38268343236427954 -0.9238795325116222 1.1511492533110145e-16
  outer loop
    vertex -542.2078132208611 970.9911422925547 7.049916206369744e-15
    vertex -541.8460417885149 971.1409929263114 10.0
    vertex -542.2078132208611 970.9911422925547 10.0
  endloop
endfacet
facet normal 0.6087614290083783 0.793353340291498 -9.885142739395715e-17
  outer loop
    vertex -542.5184733926409 968.6314440150976 10.0
    vertex -542.2078132208611 968.393066081201 7.049916206369744e-15
    vertex -542.5184733926409 968.6314440150976 7.049916206369744e-15
  endloop
endfacet
facet normal 0.6087614290083783 0.793353340291498 -9.885142739395715e-17
  outer loop
    vertex -542.2078132208611 968.393066081201 7.049916206369744e-15
    vertex -542.5184733926409 968.6314440150976 10.0
    vertex -542.2078132208611 968.393066081201 10.0
  endloop
endfacet
facet normal -0.38268343236427954 -0.9238795325116222 1.1511492533110145e-16
  outer loop
    vertex -500.70781322086117 970.9911422925547 10.0
    vertex -501.0695846532074 971.1409929263114 7.049916206369744e-15
    vertex -500.70781322086117 970.9911422925547 7.049916206369744e-15
  endloop
endfacet
facet normal -0.38268343236427954 -0.9238795325116222 1.1511492533110145e-16
  outer loop
    vertex -501.0695846532074 971.1409929263114 7.049916206369744e-15
    vertex -500.70781322086117 970.9911422925547 10.0
    vertex -501.0695846532074 971.1409929263114 10.0
  endloop
endfacet
facet normal -0.13052619221896208 0.9914448613739538 -1.235335313433098e-16
  outer loop
    vertex -541.4578132208611 968.1921041868778 10.0
    vertex -541.0695846532074 968.2432154474437 7.049916206369744e-15
    vertex -541.4578132208611 968.1921041868778 7.049916206369744e-15
  endloop
endfacet
facet normal -0.13052619221896208 0.9914448613739538 -1.235335313433098e-16
  outer loop
    vertex -541.0695846532074 968.2432154474437 7.049916206369744e-15
    vertex -541.4578132208611 968.1921041868778 10.0
    vertex -541.0695846532074 968.2432154474437 10.0
  endloop
endfacet
facet normal -0.9238795325114652 -0.382683432364659 4.768216330363738e-17
  outer loop
    vertex -540.1587751151844 970.4421041868779 10.0
    vertex -540.0089244814275 970.0803327545314 7.049916206369744e-15
    vertex -540.0089244814275 970.0803327545314 10.0
  endloop
endfacet
facet normal -0.9238795325114652 -0.382683432364659 4.768216330363738e-17
  outer loop
    vertex -540.0089244814275 970.0803327545314 7.049916206369744e-15
    vertex -540.1587751151844 970.4421041868779 10.0
    vertex -540.1587751151844 970.4421041868779 7.049916206369744e-15
  endloop
endfacet
facet normal 0.9238795325114652 0.382683432364659 -4.768216330363738e-17
  outer loop
    vertex -542.9067019602948 969.3038756192243 7.049916206369744e-15
    vertex -542.7568513265378 968.9421041868776 10.0
    vertex -542.7568513265378 968.9421041868776 7.049916206369744e-15
  endloop
endfacet
facet normal 0.9238795325114652 0.382683432364659 -4.768216330363738e-17
  outer loop
    vertex -542.7568513265378 968.9421041868776 10.0
    vertex -542.9067019602948 969.3038756192243 7.049916206369744e-15
    vertex -542.9067019602948 969.3038756192243 10.0
  endloop
endfacet
facet normal 9.989554267228655e-34 1.1279865930191713e-15 -1.0
  outer loop
    vertex -576.4496200034181 972.1921041868776 5.639932965095795e-15
    vertex -541.4578132208611 971.192104186878 7.049916206369744e-15
    vertex -576.4496200034181 967.1921041868776 0.0
  endloop
endfacet
facet normal 9.989554267228655e-34 1.1279865930191713e-15 -1.0
  outer loop
    vertex -541.4578132208611 971.192104186878 7.049916206369744e-15
    vertex -576.4496200034181 972.1921041868776 5.639932965095795e-15
    vertex -465.44962000341803 972.1921041868776 2.9314734771163482e-15
  endloop
endfacet
facet normal 9.989554267228655e-34 1.1279865930191713e-15 -1.0
  outer loop
    vertex -576.4496200034181 967.1921041868776 0.0
    vertex -541.4578132208611 971.192104186878 7.049916206369744e-15
    vertex -541.8460417885149 971.1409929263114 7.049916206369744e-15
  endloop
endfacet
facet normal 9.989554267228655e-34 1.1279865930191713e-15 -1.0
  outer loop
    vertex -576.4496200034181 967.1921041868776 0.0
    vertex -541.8460417885149 971.1409929263114 7.049916206369744e-15
    vertex -542.2078132208611 970.9911422925547 7.049916206369744e-15
  endloop
endfacet
facet normal 9.989554267228655e-34 1.1279865930191713e-15 -1.0
  outer loop
    vertex -576.4496200034181 967.1921041868776 0.0
    vertex -542.2078132208611 970.9911422925547 7.049916206369744e-15
    vertex -542.5184733926409 970.7527643586573 7.049916206369744e-15
  endloop
endfacet
facet normal 9.989554267228655e-34 1.1279865930191713e-15 -1.0
  outer loop
    vertex -576.4496200034181 967.1921041868776 0.0
    vertex -542.5184733926409 970.7527643586573 7.049916206369744e-15
    vertex -542.7568513265378 970.4421041868779 7.049916206369744e-15
  endloop
endfacet
facet normal 9.989554267228655e-34 1.1279865930191713e-15 -1.0
  outer loop
    vertex -576.4496200034181 967.1921041868776 0.0
    vertex -542.7568513265378 970.4421041868779 7.049916206369744e-15
    vertex -542.9067019602948 970.0803327545314 7.049916206369744e-15
  endloop
endfacet
facet normal 9.989554267228655e-34 1.1279865930191713e-15 -1.0
  outer loop
    vertex -576.4496200034181 967.1921041868776 0.0
    vertex -542.9067019602948 970.0803327545314 7.049916206369744e-15
    vertex -542.9149681291283 970.0175449686177 1.4099832412739487e-15
  endloop
endfacet
facet normal 9.989554267228655e-34 1.1279865930191713e-15 -1.0
  outer loop
    vertex -576.4496200034181 967.1921041868776 0.0
    vertex -542.9149681291283 970.0175449686177 1.4099832412739487e-15
    vertex -542.9578132208611 969.6921041868775 7.049916206369744e-15
  endloop
endfacet
facet normal 9.989554267228655e-34 1.1279865930191713e-15 -1.0
  outer loop
    vertex -541.4578132208611 971.192104186878 7.049916206369744e-15
    vertex -465.44962000341803 972.1921041868776 2.9314734771163482e-15
    vertex -541.0695846532074 971.1409929263114 7.049916206369744e-15
  endloop
endfacet
facet normal 9.989554267228655e-34 1.1279865930191713e-15 -1.0
  outer loop
    vertex -541.0695846532074 971.1409929263114 7.049916206369744e-15
    vertex -465.44962000341803 972.1921041868776 2.9314734771163482e-15
    vertex -540.7078132208611 970.9911422925547 7.049916206369744e-15
  endloop
endfacet
facet normal 9.989554267228655e-34 1.1279865930191713e-15 -1.0
  outer loop
    vertex -540.7078132208611 970.9911422925547 7.049916206369744e-15
    vertex -465.44962000341803 972.1921041868776 2.9314734771163482e-15
    vertex -540.3971530490813 970.7527643586573 7.049916206369744e-15
  endloop
endfacet
facet normal 9.989554267228655e-34 1.1279865930191713e-15 -1.0
  outer loop
    vertex -540.3971530490813 970.7527643586573 7.049916206369744e-15
    vertex -465.44962000341803 972.1921041868776 2.9314734771163482e-15
    vertex -540.1587751151844 970.4421041868779 7.049916206369744e-15
  endloop
endfacet
facet normal 9.989554267228655e-34 1.1279865930191713e-15 -1.0
  outer loop
    vertex -540.1587751151844 970.4421041868779 7.049916206369744e-15
    vertex -465.44962000341803 972.1921041868776 2.9314734771163482e-15
    vertex -501.45781322086117 971.192104186878 7.049916206369744e-15
  endloop
endfacet
facet normal 9.989554267228655e-34 1.1279865930191713e-15 -1.0
  outer loop
    vertex -540.1587751151844 970.4421041868779 7.049916206369744e-15
    vertex -501.45781322086117 971.192104186878 7.049916206369744e-15
    vertex -540.0089244814275 970.0803327545314 7.049916206369744e-15
  endloop
endfacet
facet normal 9.989554267228655e-34 1.1279865930191713e-15 -1.0
  outer loop
    vertex -540.0089244814275 970.0803327545314 7.049916206369744e-15
    vertex -501.45781322086117 971.192104186878 7.049916206369744e-15
    vertex -540.0006583125939 970.0175449686177 1.4099832412739487e-15
  endloop
endfacet
facet normal 9.989554267228655e-34 1.1279865930191713e-15 -1.0
  outer loop
    vertex -540.0006583125939 970.0175449686177 1.4099832412739487e-15
    vertex -501.45781322086117 971.192104186878 7.049916206369744e-15
    vertex -539.9578132208611 969.6921041868775 7.049916206369744e-15
  endloop
endfacet
facet normal 9.989554267228655e-34 1.1279865930191713e-15 -1.0
  outer loop
    vertex -539.9578132208611 969.6921041868775 7.049916206369744e-15
    vertex -501.45781322086117 971.192104186878 7.049916206369744e-15
    vertex -501.846041788515 971.1409929263114 7.049916206369744e-15
  endloop
endfacet
facet normal 9.989554267228655e-34 1.1279865930191713e-15 -1.0
  outer loop
    vertex -539.9578132208611 969.6921041868775 7.049916206369744e-15
    vertex -501.846041788515 971.1409929263114 7.049916206369744e-15
    vertex -502.2078132208612 970.9911422925547 7.049916206369744e-15
  endloop
endfacet
facet normal 9.989554267228655e-34 1.1279865930191713e-15 -1.0
  outer loop
    vertex -539.9578132208611 969.6921041868775 7.049916206369744e-15
    vertex -502.2078132208612 970.9911422925547 7.049916206369744e-15
    vertex -502.518473392641 970.7527643586573 7.049916206369744e-15
  endloop
endfacet
facet normal 9.989554267228655e-34 1.1279865930191713e-15 -1.0
  outer loop
    vertex -539.9578132208611 969.6921041868775 7.049916206369744e-15
    vertex -502.518473392641 970.7527643586573 7.049916206369744e-15
    vertex -502.75685132653786 970.4421041868779 7.049916206369744e-15
  endloop
endfacet
facet normal 9.989554267228655e-34 1.1279865930191713e-15 -1.0
  outer loop
    vertex -539.9578132208611 969.6921041868775 7.049916206369744e-15
    vertex -502.75685132653786 970.4421041868779 7.049916206369744e-15
    vertex -502.9067019602948 970.0803327545314 7.049916206369744e-15
  endloop
endfacet
facet normal 9.989554267228655e-34 1.1279865930191713e-15 -1.0
  outer loop
    vertex -539.9578132208611 969.6921041868775 7.049916206369744e-15
    vertex -502.9067019602948 970.0803327545314 7.049916206369744e-15
    vertex -502.91496812912834 970.0175449686177 1.4099832412739487e-15
  endloop
endfacet
facet normal 9.989554267228655e-34 1.1279865930191713e-15 -1.0
  outer loop
    vertex -539.9578132208611 969.6921041868775 7.049916206369744e-15
    vertex -502.91496812912834 970.0175449686177 1.4099832412739487e-15
    vertex -502.9578132208612 969.6921041868775 7.049916206369744e-15
  endloop
endfacet
facet normal 9.989554267228655e-34 1.1279865930191713e-15 -1.0
  outer loop
    vertex -501.45781322086117 971.192104186878 7.049916206369744e-15
    vertex -465.44962000341803 972.1921041868776 2.9314734771163482e-15
    vertex -501.0695846532074 971.1409929263114 7.049916206369744e-15
  endloop
endfacet
facet normal 9.989554267228655e-34 1.1279865930191713e-15 -1.0
  outer loop
    vertex -501.0695846532074 971.1409929263114 7.049916206369744e-15
    vertex -465.44962000341803 972.1921041868776 2.9314734771163482e-15
    vertex -500.70781322086117 970.9911422925547 7.049916206369744e-15
  endloop
endfacet
facet normal 9.989554267228655e-34 1.1279865930191713e-15 -1.0
  outer loop
    vertex -500.70781322086117 970.9911422925547 7.049916206369744e-15
    vertex -465.44962000341803 972.1921041868776 2.9314734771163482e-15
    vertex -500.3971530490814 970.7527643586573 7.049916206369744e-15
  endloop
endfacet
facet normal 9.989554267228655e-34 1.1279865930191713e-15 -1.0
  outer loop
    vertex -500.3971530490814 970.7527643586573 7.049916206369744e-15
    vertex -465.44962000341803 972.1921041868776 2.9314734771163482e-15
    vertex -500.15877511518454 970.4421041868779 7.049916206369744e-15
  endloop
endfacet
facet normal 9.989554267228655e-34 1.1279865930191713e-15 -1.0
  outer loop
    vertex -500.15877511518454 970.4421041868779 7.049916206369744e-15
    vertex -465.44962000341803 972.1921041868776 2.9314734771163482e-15
    vertex -500.0089244814276 970.0803327545314 7.049916206369744e-15
  endloop
endfacet
facet normal 9.989554267228655e-34 1.1279865930191713e-15 -1.0
  outer loop
    vertex -500.0089244814276 970.0803327545314 7.049916206369744e-15
    vertex -465.44962000341803 972.1921041868776 2.9314734771163482e-15
    vertex -500.00065831259406 970.0175449686177 1.4099832412739487e-15
  endloop
endfacet
facet normal 9.989554267228655e-34 1.1279865930191713e-15 -1.0
  outer loop
    vertex -500.00065831259406 970.0175449686177 1.4099832412739487e-15
    vertex -465.44962000341803 972.1921041868776 2.9314734771163482e-15
    vertex -499.95781322086117 969.6921041868775 7.049916206369744e-15
  endloop
endfacet
facet normal 9.989554267228655e-34 1.1279865930191713e-15 -1.0
  outer loop
    vertex -499.95781322086117 969.6921041868775 7.049916206369744e-15
    vertex -465.44962000341803 972.1921041868776 2.9314734771163482e-15
    vertex -465.44962000341815 967.1921041868776 -2.7084594879794467e-15
  endloop
endfacet
facet normal 9.989554267228655e-34 1.1279865930191713e-15 -1.0
  outer loop
    vertex -576.4496200034181 967.1921041868776 0.0
    vertex -541.4578132208611 968.1921041868778 7.049916206369744e-15
    vertex -465.44962000341815 967.1921041868776 -2.7084594879794467e-15
  endloop
endfacet
facet normal 9.989554267228655e-34 1.1279865930191713e-15 -1.0
  outer loop
    vertex -541.4578132208611 968.1921041868778 7.049916206369744e-15
    vertex -576.4496200034181 967.1921041868776 0.0
    vertex -541.8460417885149 968.2432154474437 7.049916206369744e-15
  endloop
endfacet
facet normal 9.989554267228655e-34 1.1279865930191713e-15 -1.0
  outer loop
    vertex -541.8460417885149 968.2432154474437 7.049916206369744e-15
    vertex -576.4496200034181 967.1921041868776 0.0
    vertex -542.2078132208611 968.393066081201 7.049916206369744e-15
  endloop
endfacet
facet normal 9.989554267228655e-34 1.1279865930191713e-15 -1.0
  outer loop
    vertex -542.2078132208611 968.393066081201 7.049916206369744e-15
    vertex -576.4496200034181 967.1921041868776 0.0
    vertex -542.5184733926409 968.6314440150976 7.049916206369744e-15
  endloop
endfacet
facet normal 9.989554267228655e-34 1.1279865930191713e-15 -1.0
  outer loop
    vertex -542.5184733926409 968.6314440150976 7.049916206369744e-15
    vertex -576.4496200034181 967.1921041868776 0.0
    vertex -542.7568513265378 968.9421041868776 7.049916206369744e-15
  endloop
endfacet
facet normal 9.989554267228655e-34 1.1279865930191713e-15 -1.0
  outer loop
    vertex -542.7568513265378 968.9421041868776 7.049916206369744e-15
    vertex -576.4496200034181 967.1921041868776 0.0
    vertex -542.9067019602948 969.3038756192243 7.049916206369744e-15
  endloop
endfacet
facet normal 9.989554267228655e-34 1.1279865930191713e-15 -1.0
  outer loop
    vertex -542.9067019602948 969.3038756192243 7.049916206369744e-15
    vertex -576.4496200034181 967.1921041868776 0.0
    vertex -542.9578132208611 969.6921041868775 7.049916206369744e-15
  endloop
endfacet
facet normal 9.989554267228655e-34 1.1279865930191713e-15 -1.0
  outer loop
    vertex -465.44962000341815 967.1921041868776 -2.7084594879794467e-15
    vertex -541.4578132208611 968.1921041868778 7.049916206369744e-15
    vertex -541.0695846532074 968.2432154474437 7.049916206369744e-15
  endloop
endfacet
facet normal 9.989554267228655e-34 1.1279865930191713e-15 -1.0
  outer loop
    vertex -465.44962000341815 967.1921041868776 -2.7084594879794467e-15
    vertex -541.0695846532074 968.2432154474437 7.049916206369744e-15
    vertex -540.7078132208611 968.393066081201 7.049916206369744e-15
  endloop
endfacet
facet normal 9.989554267228655e-34 1.1279865930191713e-15 -1.0
  outer loop
    vertex -465.44962000341815 967.1921041868776 -2.7084594879794467e-15
    vertex -540.7078132208611 968.393066081201 7.049916206369744e-15
    vertex -540.3971530490813 968.6314440150976 7.049916206369744e-15
  endloop
endfacet
facet normal 9.989554267228655e-34 1.1279865930191713e-15 -1.0
  outer loop
    vertex -465.44962000341815 967.1921041868776 -2.7084594879794467e-15
    vertex -540.3971530490813 968.6314440150976 7.049916206369744e-15
    vertex -540.1587751151844 968.9421041868776 7.049916206369744e-15
  endloop
endfacet
facet normal 9.989554267228655e-34 1.1279865930191713e-15 -1.0
  outer loop
    vertex -465.44962000341815 967.1921041868776 -2.7084594879794467e-15
    vertex -540.1587751151844 968.9421041868776 7.049916206369744e-15
    vertex -501.45781322086117 968.1921041868778 7.049916206369744e-15
  endloop
endfacet
facet normal 9.989554267228655e-34 1.1279865930191713e-15 -1.0
  outer loop
    vertex -501.45781322086117 968.1921041868778 7.049916206369744e-15
    vertex -540.1587751151844 968.9421041868776 7.049916206369744e-15
    vertex -540.0089244814275 969.3038756192243 7.049916206369744e-15
  endloop
endfacet
facet normal 9.989554267228655e-34 1.1279865930191713e-15 -1.0
  outer loop
    vertex -501.45781322086117 968.1921041868778 7.049916206369744e-15
    vertex -540.0089244814275 969.3038756192243 7.049916206369744e-15
    vertex -539.9578132208611 969.6921041868775 7.049916206369744e-15
  endloop
endfacet
facet normal 9.989554267228655e-34 1.1279865930191713e-15 -1.0
  outer loop
    vertex -501.45781322086117 968.1921041868778 7.049916206369744e-15
    vertex -539.9578132208611 969.6921041868775 7.049916206369744e-15
    vertex -501.846041788515 968.2432154474437 7.049916206369744e-15
  endloop
endfacet
facet normal 9.989554267228655e-34 1.1279865930191713e-15 -1.0
  outer loop
    vertex -501.846041788515 968.2432154474437 7.049916206369744e-15
    vertex -539.9578132208611 969.6921041868775 7.049916206369744e-15
    vertex -502.2078132208612 968.393066081201 7.049916206369744e-15
  endloop
endfacet
facet normal 9.989554267228655e-34 1.1279865930191713e-15 -1.0
  outer loop
    vertex -502.2078132208612 968.393066081201 7.049916206369744e-15
    vertex -539.9578132208611 969.6921041868775 7.049916206369744e-15
    vertex -502.518473392641 968.6314440150976 7.049916206369744e-15
  endloop
endfacet
facet normal 9.989554267228655e-34 1.1279865930191713e-15 -1.0
  outer loop
    vertex -502.518473392641 968.6314440150976 7.049916206369744e-15
    vertex -539.9578132208611 969.6921041868775 7.049916206369744e-15
    vertex -502.75685132653786 968.9421041868776 7.049916206369744e-15
  endloop
endfacet
facet normal 9.989554267228655e-34 1.1279865930191713e-15 -1.0
  outer loop
    vertex -502.75685132653786 968.9421041868776 7.049916206369744e-15
    vertex -539.9578132208611 969.6921041868775 7.049916206369744e-15
    vertex -502.9067019602948 969.3038756192243 7.049916206369744e-15
  endloop
endfacet
facet normal 9.989554267228655e-34 1.1279865930191713e-15 -1.0
  outer loop
    vertex -502.9067019602948 969.3038756192243 7.049916206369744e-15
    vertex -539.9578132208611 969.6921041868775 7.049916206369744e-15
    vertex -502.9578132208612 969.6921041868775 7.049916206369744e-15
  endloop
endfacet
facet normal 9.989554267228655e-34 1.1279865930191713e-15 -1.0
  outer loop
    vertex -465.44962000341815 967.1921041868776 -2.7084594879794467e-15
    vertex -501.45781322086117 968.1921041868778 7.049916206369744e-15
    vertex -501.0695846532074 968.2432154474437 7.049916206369744e-15
  endloop
endfacet
facet normal 9.989554267228655e-34 1.1279865930191713e-15 -1.0
  outer loop
    vertex -465.44962000341815 967.1921041868776 -2.7084594879794467e-15
    vertex -501.0695846532074 968.2432154474437 7.049916206369744e-15
    vertex -500.70781322086117 968.393066081201 7.049916206369744e-15
  endloop
endfacet
facet normal 9.989554267228655e-34 1.1279865930191713e-15 -1.0
  outer loop
    vertex -465.44962000341815 967.1921041868776 -2.7084594879794467e-15
    vertex -500.70781322086117 968.393066081201 7.049916206369744e-15
    vertex -500.3971530490814 968.6314440150976 7.049916206369744e-15
  endloop
endfacet
facet normal 9.989554267228655e-34 1.1279865930191713e-15 -1.0
  outer loop
    vertex -465.44962000341815 967.1921041868776 -2.7084594879794467e-15
    vertex -500.3971530490814 968.6314440150976 7.049916206369744e-15
    vertex -500.15877511518454 968.9421041868776 7.049916206369744e-15
  endloop
endfacet
facet normal 9.989554267228655e-34 1.1279865930191713e-15 -1.0
  outer loop
    vertex -465.44962000341815 967.1921041868776 -2.7084594879794467e-15
    vertex -500.15877511518454 968.9421041868776 7.049916206369744e-15
    vertex -500.0089244814276 969.3038756192243 7.049916206369744e-15
  endloop
endfacet
facet normal 9.989554267228655e-34 1.1279865930191713e-15 -1.0
  outer loop
    vertex -465.44962000341815 967.1921041868776 -2.7084594879794467e-15
    vertex -500.0089244814276 969.3038756192243 7.049916206369744e-15
    vertex -499.95781322086117 969.6921041868775 7.049916206369744e-15
  endloop
endfacet
facet normal -5.224307218333742e-18 -3.370577578544753e-18 1.0
  outer loop
    vertex -576.4496200034181 967.1921041868776 10.000000000000005
    vertex -541.4578132208611 968.1921041868778 10.0
    vertex -576.4496200034181 972.1921041868776 10.000000000000005
  endloop
endfacet
facet normal -5.224307218333742e-18 -3.370577578544753e-18 1.0
  outer loop
    vertex -541.4578132208611 968.1921041868778 10.0
    vertex -576.4496200034181 967.1921041868776 10.000000000000005
    vertex -465.44962000341803 967.1921041868776 10.000000000000004
  endloop
endfacet
facet normal -5.224307218333742e-18 -3.370577578544753e-18 1.0
  outer loop
    vertex -576.4496200034181 972.1921041868776 10.000000000000005
    vertex -541.4578132208611 968.1921041868778 10.0
    vertex -541.8460417885149 968.2432154474437 10.0
  endloop
endfacet
facet normal -5.224307218333742e-18 -3.370577578544753e-18 1.0
  outer loop
    vertex -576.4496200034181 972.1921041868776 10.000000000000005
    vertex -541.8460417885149 968.2432154474437 10.0
    vertex -542.2078132208611 968.393066081201 10.0
  endloop
endfacet
facet normal -5.224307218333742e-18 -3.370577578544753e-18 1.0
  outer loop
    vertex -576.4496200034181 972.1921041868776 10.000000000000005
    vertex -542.2078132208611 968.393066081201 10.0
    vertex -542.5184733926409 968.6314440150976 10.0
  endloop
endfacet
facet normal -5.224307218333742e-18 -3.370577578544753e-18 1.0
  outer loop
    vertex -576.4496200034181 972.1921041868776 10.000000000000005
    vertex -542.5184733926409 968.6314440150976 10.0
    vertex -542.7568513265378 968.9421041868776 10.0
  endloop
endfacet
facet normal -5.224307218333742e-18 -3.370577578544753e-18 1.0
  outer loop
    vertex -576.4496200034181 972.1921041868776 10.000000000000005
    vertex -542.7568513265378 968.9421041868776 10.0
    vertex -542.9067019602948 969.3038756192243 10.0
  endloop
endfacet
facet normal -5.224307218333742e-18 -3.370577578544753e-18 1.0
  outer loop
    vertex -576.4496200034181 972.1921041868776 10.000000000000005
    vertex -542.9067019602948 969.3038756192243 10.0
    vertex -542.9578132208611 969.6921041868775 10.0
  endloop
endfacet
facet normal -5.224307218333742e-18 -3.370577578544753e-18 1.0
  outer loop
    vertex -541.4578132208611 968.1921041868778 10.0
    vertex -465.44962000341803 967.1921041868776 10.000000000000004
    vertex -541.0695846532074 968.2432154474437 10.0
  endloop
endfacet
facet normal -5.224307218333742e-18 -3.370577578544753e-18 1.0
  outer loop
    vertex -541.0695846532074 968.2432154474437 10.0
    vertex -465.44962000341803 967.1921041868776 10.000000000000004
    vertex -540.7078132208611 968.393066081201 10.0
  endloop
endfacet
facet normal -5.224307218333742e-18 -3.370577578544753e-18 1.0
  outer loop
    vertex -540.7078132208611 968.393066081201 10.0
    vertex -465.44962000341803 967.1921041868776 10.000000000000004
    vertex -540.3971530490813 968.6314440150976 10.0
  endloop
endfacet
facet normal -5.224307218333742e-18 -3.370577578544753e-18 1.0
  outer loop
    vertex -540.3971530490813 968.6314440150976 10.0
    vertex -465.44962000341803 967.1921041868776 10.000000000000004
    vertex -540.1587751151844 968.9421041868776 10.0
  endloop
endfacet
facet normal -5.224307218333742e-18 -3.370577578544753e-18 1.0
  outer loop
    vertex -540.1587751151844 968.9421041868776 10.0
    vertex -465.44962000341803 967.1921041868776 10.000000000000004
    vertex -501.45781322086117 968.1921041868778 10.0
  endloop
endfacet
facet normal -5.224307218333742e-18 -3.370577578544753e-18 1.0
  outer loop
    vertex -540.1587751151844 968.9421041868776 10.0
    vertex -501.45781322086117 968.1921041868778 10.0
    vertex -540.0089244814275 969.3038756192243 10.0
  endloop
endfacet
facet normal -5.224307218333742e-18 -3.370577578544753e-18 1.0
  outer loop
    vertex -540.0089244814275 969.3038756192243 10.0
    vertex -501.45781322086117 968.1921041868778 10.0
    vertex -539.9578132208611 969.6921041868775 10.0
  endloop
endfacet
facet normal -5.224307218333742e-18 -3.370577578544753e-18 1.0
  outer loop
    vertex -539.9578132208611 969.6921041868775 10.0
    vertex -501.45781322086117 968.1921041868778 10.0
    vertex -501.846041788515 968.2432154474437 10.0
  endloop
endfacet
facet normal -5.224307218333742e-18 -3.370577578544753e-18 1.0
  outer loop
    vertex -539.9578132208611 969.6921041868775 10.0
    vertex -501.846041788515 968.2432154474437 10.0
    vertex -502.2078132208612 968.393066081201 10.0
  endloop
endfacet
facet normal -5.224307218333742e-18 -3.370577578544753e-18 1.0
  outer loop
    vertex -539.9578132208611 969.6921041868775 10.0
    vertex -502.2078132208612 968.393066081201 10.0
    vertex -502.518473392641 968.6314440150976 10.0
  endloop
endfacet
facet normal -5.224307218333742e-18 -3.370577578544753e-18 1.0
  outer loop
    vertex -539.9578132208611 969.6921041868775 10.0
    vertex -502.518473392641 968.6314440150976 10.0
    vertex -502.75685132653786 968.9421041868776 10.0
  endloop
endfacet
facet normal -5.224307218333742e-18 -3.370577578544753e-18 1.0
  outer loop
    vertex -539.9578132208611 969.6921041868775 10.0
    vertex -502.75685132653786 968.9421041868776 10.0
    vertex -502.9067019602948 969.3038756192243 10.0
  endloop
endfacet
facet normal -5.224307218333742e-18 -3.370577578544753e-18 1.0
  outer loop
    vertex -539.9578132208611 969.6921041868775 10.0
    vertex -502.9067019602948 969.3038756192243 10.0
    vertex -502.9578132208612 969.6921041868775 10.0
  endloop
endfacet
facet normal -5.224307218333742e-18 -3.370577578544753e-18 1.0
  outer loop
    vertex -501.45781322086117 968.1921041868778 10.0
    vertex -465.44962000341803 967.1921041868776 10.000000000000004
    vertex -501.0695846532074 968.2432154474437 10.0
  endloop
endfacet
facet normal -5.224307218333742e-18 -3.370577578544753e-18 1.0
  outer loop
    vertex -501.0695846532074 968.2432154474437 10.0
    vertex -465.44962000341803 967.1921041868776 10.000000000000004
    vertex -500.70781322086117 968.393066081201 10.0
  endloop
endfacet
facet normal -5.224307218333742e-18 -3.370577578544753e-18 1.0
  outer loop
    vertex -500.70781322086117 968.393066081201 10.0
    vertex -465.44962000341803 967.1921041868776 10.000000000000004
    vertex -500.3971530490814 968.6314440150976 10.0
  endloop
endfacet
facet normal -5.224307218333742e-18 -3.370577578544753e-18 1.0
  outer loop
    vertex -500.3971530490814 968.6314440150976 10.0
    vertex -465.44962000341803 967.1921041868776 10.000000000000004
    vertex -500.15877511518454 968.9421041868776 10.0
  endloop
endfacet
facet normal -5.224307218333742e-18 -3.370577578544753e-18 1.0
  outer loop
    vertex -500.15877511518454 968.9421041868776 10.0
    vertex -465.44962000341803 967.1921041868776 10.000000000000004
    vertex -500.0089244814276 969.3038756192243 10.0
  endloop
endfacet
facet normal -5.224307218333742e-18 -3.370577578544753e-18 1.0
  outer loop
    vertex -500.0089244814276 969.3038756192243 10.0
    vertex -465.44962000341803 967.1921041868776 10.000000000000004
    vertex -499.95781322086117 969.6921041868775 10.0
  endloop
endfacet
facet normal -5.224307218333742e-18 -3.370577578544753e-18 1.0
  outer loop
    vertex -576.4496200034181 972.1921041868776 10.000000000000005
    vertex -541.4578132208611 971.192104186878 10.0
    vertex -465.44962000341803 972.1921041868776 10.000000000000004
  endloop
endfacet
facet normal -5.224307218333742e-18 -3.370577578544753e-18 1.0
  outer loop
    vertex -541.4578132208611 971.192104186878 10.0
    vertex -576.4496200034181 972.1921041868776 10.000000000000005
    vertex -541.8460417885149 971.1409929263114 10.0
  endloop
endfacet
facet normal -5.224307218333742e-18 -3.370577578544753e-18 1.0
  outer loop
    vertex -541.8460417885149 971.1409929263114 10.0
    vertex -576.4496200034181 972.1921041868776 10.000000000000005
    vertex -542.2078132208611 970.9911422925547 10.0
  endloop
endfacet
facet normal -5.224307218333742e-18 -3.370577578544753e-18 1.0
  outer loop
    vertex -542.2078132208611 970.9911422925547 10.0
    vertex -576.4496200034181 972.1921041868776 10.000000000000005
    vertex -542.5184733926409 970.7527643586573 10.0
  endloop
endfacet
facet normal -5.224307218333742e-18 -3.370577578544753e-18 1.0
  outer loop
    vertex -542.5184733926409 970.7527643586573 10.0
    vertex -576.4496200034181 972.1921041868776 10.000000000000005
    vertex -542.7568513265378 970.4421041868779 10.0
  endloop
endfacet
facet normal -5.224307218333742e-18 -3.370577578544753e-18 1.0
  outer loop
    vertex -542.7568513265378 970.4421041868779 10.0
    vertex -576.4496200034181 972.1921041868776 10.000000000000005
    vertex -542.9067019602948 970.0803327545314 10.0
  endloop
endfacet
facet normal -5.224307218333742e-18 -3.370577578544753e-18 1.0
  outer loop
    vertex -542.9067019602948 970.0803327545314 10.0
    vertex -576.4496200034181 972.1921041868776 10.000000000000005
    vertex -542.9149681291283 970.0175449686177 9.999999999999977
  endloop
endfacet
facet normal -5.224307218333742e-18 -3.370577578544753e-18 1.0
  outer loop
    vertex -542.9149681291283 970.0175449686177 9.999999999999977
    vertex -576.4496200034181 972.1921041868776 10.000000000000005
    vertex -542.9578132208611 969.6921041868775 10.0
  endloop
endfacet
facet normal -5.224307218333742e-18 -3.370577578544753e-18 1.0
  outer loop
    vertex -465.44962000341803 972.1921041868776 10.000000000000004
    vertex -541.4578132208611 971.192104186878 10.0
    vertex -541.0695846532074 971.1409929263114 10.0
  endloop
endfacet
facet normal -5.224307218333742e-18 -3.370577578544753e-18 1.0
  outer loop
    vertex -465.44962000341803 972.1921041868776 10.000000000000004
    vertex -541.0695846532074 971.1409929263114 10.0
    vertex -540.7078132208611 970.9911422925547 10.0
  endloop
endfacet
facet normal -5.224307218333742e-18 -3.370577578544753e-18 1.0
  outer loop
    vertex -465.44962000341803 972.1921041868776 10.000000000000004
    vertex -540.7078132208611 970.9911422925547 10.0
    vertex -540.3971530490813 970.7527643586573 10.0
  endloop
endfacet
facet normal -5.224307218333742e-18 -3.370577578544753e-18 1.0
  outer loop
    vertex -465.44962000341803 972.1921041868776 10.000000000000004
    vertex -540.3971530490813 970.7527643586573 10.0
    vertex -540.1587751151844 970.4421041868779 10.0
  endloop
endfacet
facet normal -5.224307218333742e-18 -3.370577578544753e-18 1.0
  outer loop
    vertex -465.44962000341803 972.1921041868776 10.000000000000004
    vertex -540.1587751151844 970.4421041868779 10.0
    vertex -501.45781322086117 971.192104186878 10.0
  endloop
endfacet
facet normal -5.224307218333742e-18 -3.370577578544753e-18 1.0
  outer loop
    vertex -501.45781322086117 971.192104186878 10.0
    vertex -540.1587751151844 970.4421041868779 10.0
    vertex -540.0089244814275 970.0803327545314 10.0
  endloop
endfacet
facet normal -5.224307218333742e-18 -3.370577578544753e-18 1.0
  outer loop
    vertex -501.45781322086117 971.192104186878 10.0
    vertex -540.0089244814275 970.0803327545314 10.0
    vertex -540.0006583125939 970.0175449686177 9.999999999999977
  endloop
endfacet
facet normal -5.224307218333742e-18 -3.370577578544753e-18 1.0
  outer loop
    vertex -501.45781322086117 971.192104186878 10.0
    vertex -540.0006583125939 970.0175449686177 9.999999999999977
    vertex -539.9578132208611 969.6921041868775 10.0
  endloop
endfacet
facet normal -5.224307218333742e-18 -3.370577578544753e-18 1.0
  outer loop
    vertex -501.45781322086117 971.192104186878 10.0
    vertex -539.9578132208611 969.6921041868775 10.0
    vertex -501.846041788515 971.1409929263114 10.0
  endloop
endfacet
facet normal -5.224307218333742e-18 -3.370577578544753e-18 1.0
  outer loop
    vertex -501.846041788515 971.1409929263114 10.0
    vertex -539.9578132208611 969.6921041868775 10.0
    vertex -502.2078132208612 970.9911422925547 10.0
  endloop
endfacet
facet normal -5.224307218333742e-18 -3.370577578544753e-18 1.0
  outer loop
    vertex -502.2078132208612 970.9911422925547 10.0
    vertex -539.9578132208611 969.6921041868775 10.0
    vertex -502.518473392641 970.7527643586573 10.0
  endloop
endfacet
facet normal -5.224307218333742e-18 -3.370577578544753e-18 1.0
  outer loop
    vertex -502.518473392641 970.7527643586573 10.0
    vertex -539.9578132208611 969.6921041868775 10.0
    vertex -502.75685132653786 970.4421041868779 10.0
  endloop
endfacet
facet normal -5.224307218333742e-18 -3.370577578544753e-18 1.0
  outer loop
    vertex -502.75685132653786 970.4421041868779 10.0
    vertex -539.9578132208611 969.6921041868775 10.0
    vertex -502.9067019602948 970.0803327545314 10.0
  endloop
endfacet
facet normal -5.224307218333742e-18 -3.370577578544753e-18 1.0
  outer loop
    vertex -502.9067019602948 970.0803327545314 10.0
    vertex -539.9578132208611 969.6921041868775 10.0
    vertex -502.91496812912834 970.0175449686177 9.999999999999977
  endloop
endfacet
facet normal -5.224307218333742e-18 -3.370577578544753e-18 1.0
  outer loop
    vertex -502.91496812912834 970.0175449686177 9.999999999999977
    vertex -539.9578132208611 969.6921041868775 10.0
    vertex -502.9578132208612 969.6921041868775 10.0
  endloop
endfacet
facet normal -5.224307218333742e-18 -3.370577578544753e-18 1.0
  outer loop
    vertex -465.44962000341803 972.1921041868776 10.000000000000004
    vertex -501.45781322086117 971.192104186878 10.0
    vertex -501.0695846532074 971.1409929263114 10.0
  endloop
endfacet
facet normal -5.224307218333742e-18 -3.370577578544753e-18 1.0
  outer loop
    vertex -465.44962000341803 972.1921041868776 10.000000000000004
    vertex -501.0695846532074 971.1409929263114 10.0
    vertex -500.70781322086117 970.9911422925547 10.0
  endloop
endfacet
facet normal -5.224307218333742e-18 -3.370577578544753e-18 1.0
  outer loop
    vertex -465.44962000341803 972.1921041868776 10.000000000000004
    vertex -500.70781322086117 970.9911422925547 10.0
    vertex -500.3971530490814 970.7527643586573 10.0
  endloop
endfacet
facet normal -5.224307218333742e-18 -3.370577578544753e-18 1.0
  outer loop
    vertex -465.44962000341803 972.1921041868776 10.000000000000004
    vertex -500.3971530490814 970.7527643586573 10.0
    vertex -500.15877511518454 970.4421041868779 10.0
  endloop
endfacet
facet normal -5.224307218333742e-18 -3.370577578544753e-18 1.0
  outer loop
    vertex -465.44962000341803 972.1921041868776 10.000000000000004
    vertex -500.15877511518454 970.4421041868779 10.0
    vertex -500.0089244814276 970.0803327545314 10.0
  endloop
endfacet
facet normal -5.224307218333742e-18 -3.370577578544753e-18 1.0
  outer loop
    vertex -465.44962000341803 972.1921041868776 10.000000000000004
    vertex -500.0089244814276 970.0803327545314 10.0
    vertex -500.00065831259406 970.0175449686177 9.999999999999977
  endloop
endfacet
facet normal -5.224307218333742e-18 -3.370577578544753e-18 1.0
  outer loop
    vertex -465.44962000341803 972.1921041868776 10.000000000000004
    vertex -500.00065831259406 970.0175449686177 9.999999999999977
    vertex -499.95781322086117 969.6921041868775 10.0
  endloop
endfacet
facet normal -5.224307218333742e-18 -3.370577578544753e-18 1.0
  outer loop
    vertex -465.44962000341803 972.1921041868776 10.000000000000004
    vertex -499.95781322086117 969.6921041868775 10.0
    vertex -465.44962000341803 967.1921041868776 10.000000000000004
  endloop
endfacet
facet normal -0.6087614290098288 -0.7933533402903851 9.885142739381849e-17
  outer loop
    vertex -500.3971530490814 970.7527643586573 10.0
    vertex -500.70781322086117 970.9911422925547 7.049916206369744e-15
    vertex -500.3971530490814 970.7527643586573 7.049916206369744e-15
  endloop
endfacet
facet normal -0.6087614290098288 -0.7933533402903851 9.885142739381849e-17
  outer loop
    vertex -500.70781322086117 970.9911422925547 7.049916206369744e-15
    vertex -500.3971530490814 970.7527643586573 10.0
    vertex -500.70781322086117 970.9911422925547 10.0
  endloop
endfacet
facet normal 0.6087614290083783 0.793353340291498 -9.885142739395716e-17
  outer loop
    vertex -502.518473392641 968.6314440150976 10.0
    vertex -502.2078132208612 968.393066081201 7.049916206369744e-15
    vertex -502.518473392641 968.6314440150976 7.049916206369744e-15
  endloop
endfacet
facet normal 0.6087614290083783 0.793353340291498 -9.885142739395716e-17
  outer loop
    vertex -502.2078132208612 968.393066081201 7.049916206369744e-15
    vertex -502.518473392641 968.6314440150976 10.0
    vertex -502.2078132208612 968.393066081201 10.0
  endloop
endfacet
facet normal -0.9238795325114652 -0.382683432364659 4.768216330363739e-17
  outer loop
    vertex -500.15877511518454 970.4421041868779 10.0
    vertex -500.0089244814276 970.0803327545314 7.049916206369744e-15
    vertex -500.0089244814276 970.0803327545314 10.0
  endloop
endfacet
facet normal -0.9238795325114652 -0.382683432364659 4.768216330363739e-17
  outer loop
    vertex -500.0089244814276 970.0803327545314 7.049916206369744e-15
    vertex -500.15877511518454 970.4421041868779 10.0
    vertex -500.15877511518454 970.4421041868779 7.049916206369744e-15
  endloop
endfacet
facet normal -6.7691351434643305e-31 -0.496138938356832 -0.8682431421244602
  outer loop
    vertex -465.44962000341815 967.1921041868776 -2.7084594879794467e-15
    vertex -576.4496200034181 960.1921041868776 3.9999999999999996
    vertex -576.4496200034181 967.1921041868776 0.0
  endloop
endfacet
facet normal -6.7691351434643305e-31 -0.496138938356832 -0.8682431421244602
  outer loop
    vertex -576.4496200034181 960.1921041868776 3.9999999999999996
    vertex -465.44962000341815 967.1921041868776 -2.7084594879794467e-15
    vertex -465.44962000341815 960.1921041868776 3.999999999999997
  endloop
endfacet
facet normal -0.6087614290083783 0.793353340291498 -9.885142739395716e-17
  outer loop
    vertex -500.70781322086117 968.393066081201 10.0
    vertex -500.3971530490814 968.6314440150976 7.049916206369744e-15
    vertex -500.70781322086117 968.393066081201 7.049916206369744e-15
  endloop
endfacet
facet normal -0.6087614290083783 0.793353340291498 -9.885142739395716e-17
  outer loop
    vertex -500.3971530490814 968.6314440150976 7.049916206369744e-15
    vertex -500.70781322086117 968.393066081201 10.0
    vertex -500.3971530490814 968.6314440150976 10.0
  endloop
endfacet
facet normal 0.9238795325114652 -0.382683432364659 4.768216330363739e-17
  outer loop
    vertex -502.75685132653786 970.4421041868779 7.049916206369744e-15
    vertex -502.9067019602948 970.0803327545314 10.0
    vertex -502.9067019602948 970.0803327545314 7.049916206369744e-15
  endloop
endfacet
facet normal 0.9238795325114652 -0.382683432364659 4.768216330363739e-17
  outer loop
    vertex -502.9067019602948 970.0803327545314 10.0
    vertex -502.75685132653786 970.4421041868779 7.049916206369744e-15
    vertex -502.75685132653786 970.4421041868779 10.0
  endloop
endfacet
facet normal 0.38268343236585317 0.9238795325109705 -1.1511492533102025e-16
  outer loop
    vertex -502.2078132208612 968.393066081201 10.0
    vertex -501.846041788515 968.2432154474437 7.049916206369744e-15
    vertex -502.2078132208612 968.393066081201 7.049916206369744e-15
  endloop
endfacet
facet normal 0.38268343236585317 0.9238795325109705 -1.1511492533102025e-16
  outer loop
    vertex -501.846041788515 968.2432154474437 7.049916206369744e-15
    vertex -502.2078132208612 968.393066081201 10.0
    vertex -501.846041788515 968.2432154474437 10.0
  endloop
endfacet
facet normal -0.7933533402913349 0.6087614290085908 -7.585136803958473e-17
  outer loop
    vertex -500.15877511518454 968.9421041868776 10.0
    vertex -500.3971530490814 968.6314440150976 7.049916206369744e-15
    vertex -500.3971530490814 968.6314440150976 10.0
  endloop
endfacet
facet normal -0.7933533402913349 0.6087614290085908 -7.585136803958473e-17
  outer loop
    vertex -500.3971530490814 968.6314440150976 7.049916206369744e-15
    vertex -500.15877511518454 968.9421041868776 10.0
    vertex -500.15877511518454 968.9421041868776 7.049916206369744e-15
  endloop
endfacet
facet normal 0.7933533402906516 -0.6087614290094812 7.585136803969568e-17
  outer loop
    vertex -502.518473392641 970.7527643586573 7.049916206369744e-15
    vertex -502.75685132653786 970.4421041868779 10.0
    vertex -502.75685132653786 970.4421041868779 7.049916206369744e-15
  endloop
endfacet
facet normal 0.7933533402906516 -0.6087614290094812 7.585136803969568e-17
  outer loop
    vertex -502.75685132653786 970.4421041868779 10.0
    vertex -502.518473392641 970.7527643586573 7.049916206369744e-15
    vertex -502.518473392641 970.7527643586573 10.0
  endloop
endfacet
facet normal 0.0 0.0 1.0
  outer loop
    vertex -465.44962000341803 960.1921041868776 5.000000000000002
    vertex -576.4496200034181 967.1921041868776 5.000000000000005
    vertex -576.4496200034181 960.1921041868776 5.000000000000005
  endloop
endfacet
facet normal 0.0 0.0 1.0
  outer loop
    vertex -576.4496200034181 967.1921041868776 5.000000000000005
    vertex -465.44962000341803 960.1921041868776 5.000000000000002
    vertex -465.44962000341803 967.1921041868776 5.000000000000002
  endloop
endfacet
facet normal 0.0 1.0 0.0
  outer loop
    vertex -576.4496200034181 972.1921041868776 5.639932965095795e-15
    vertex -465.44962000341803 972.1921041868776 10.000000000000004
    vertex -465.44962000341803 972.1921041868776 2.9314734771163482e-15
  endloop
endfacet
facet normal 0.0 1.0 0.0
  outer loop
    vertex -465.44962000341803 972.1921041868776 10.000000000000004
    vertex -576.4496200034181 972.1921041868776 5.639932965095795e-15
    vertex -576.4496200034181 972.1921041868776 10.000000000000005
  endloop
endfacet
facet normal -0.38268343236585317 0.9238795325109705 -1.1511492533102025e-16
  outer loop
    vertex -501.0695846532074 968.2432154474437 10.0
    vertex -500.70781322086117 968.393066081201 7.049916206369744e-15
    vertex -501.0695846532074 968.2432154474437 7.049916206369744e-15
  endloop
endfacet
facet normal -0.38268343236585317 0.9238795325109705 -1.1511492533102025e-16
  outer loop
    vertex -500.70781322086117 968.393066081201 7.049916206369744e-15
    vertex -501.0695846532074 968.2432154474437 10.0
    vertex -500.70781322086117 968.393066081201 10.0
  endloop
endfacet
facet normal 0.7933533402913349 0.6087614290085908 -7.585136803958473e-17
  outer loop
    vertex -502.75685132653786 968.9421041868776 7.049916206369744e-15
    vertex -502.518473392641 968.6314440150976 10.0
    vertex -502.518473392641 968.6314440150976 7.049916206369744e-15
  endloop
endfacet
facet normal 0.7933533402913349 0.6087614290085908 -7.585136803958473e-17
  outer loop
    vertex -502.518473392641 968.6314440150976 10.0
    vertex -502.75685132653786 968.9421041868776 7.049916206369744e-15
    vertex -502.75685132653786 968.9421041868776 10.0
  endloop
endfacet
facet normal -0.9914448613738096 -0.130526192220058 1.101050136924179e-20
  outer loop
    vertex -500.00065831259406 970.0175449686177 9.999999999999977
    vertex -499.95781322086117 969.6921041868775 7.049916206369744e-15
    vertex -499.95781322086117 969.6921041868775 10.0
  endloop
endfacet
facet normal -0.9914448613738096 -0.130526192220058 1.101050136924179e-20
  outer loop
    vertex -499.95781322086117 969.6921041868775 7.049916206369744e-15
    vertex -500.00065831259406 970.0175449686177 9.999999999999977
    vertex -500.00065831259406 970.0175449686177 1.4099832412739487e-15
  endloop
endfacet
facet normal -0.9914448613738096 -0.130526192220058 1.101050136924179e-20
  outer loop
    vertex -500.00065831259406 970.0175449686177 1.4099832412739487e-15
    vertex -500.00065831259406 970.0175449686177 9.999999999999977
    vertex -500.0089244814276 970.0803327545314 10.0
  endloop
endfacet
facet normal -0.9914448613738096 -0.130526192220058 1.101050136924179e-20
  outer loop
    vertex -500.00065831259406 970.0175449686177 1.4099832412739487e-15
    vertex -500.0089244814276 970.0803327545314 10.0
    vertex -500.0089244814276 970.0803327545314 7.049916206369744e-15
  endloop
endfacet
facet normal 0.0 -1.0 0.0
  outer loop
    vertex -465.44962000341803 960.1921041868776 5.000000000000002
    vertex -576.4496200034181 960.1921041868776 3.9999999999999996
    vertex -465.44962000341815 960.1921041868776 3.999999999999997
  endloop
endfacet
facet normal 0.0 -1.0 0.0
  outer loop
    vertex -576.4496200034181 960.1921041868776 3.9999999999999996
    vertex -465.44962000341803 960.1921041868776 5.000000000000002
    vertex -576.4496200034181 960.1921041868776 5.000000000000005
  endloop
endfacet
facet normal -0.9914448613737773 0.13052619222030346 -1.6263497937166616e-17
  outer loop
    vertex -499.95781322086117 969.6921041868775 10.0
    vertex -500.0089244814276 969.3038756192243 7.049916206369744e-15
    vertex -500.0089244814276 969.3038756192243 10.0
  endloop
endfacet
facet normal -0.9914448613737773 0.13052619222030346 -1.6263497937166616e-17
  outer loop
    vertex -500.0089244814276 969.3038756192243 7.049916206369744e-15
    vertex -499.95781322086117 969.6921041868775 10.0
    vertex -499.95781322086117 969.6921041868775 7.049916206369744e-15
  endloop
endfacet
facet normal -0.13052619222077427 -0.9914448613737153 1.2353353134328013e-16
  outer loop
    vertex -501.0695846532074 971.1409929263114 10.0
    vertex -501.45781322086117 971.192104186878 7.049916206369744e-15
    vertex -501.0695846532074 971.1409929263114 7.049916206369744e-15
  endloop
endfacet
facet normal -0.13052619222077427 -0.9914448613737153 1.2353353134328013e-16
  outer loop
    vertex -501.45781322086117 971.192104186878 7.049916206369744e-15
    vertex -501.0695846532074 971.1409929263114 10.0
    vertex -501.45781322086117 971.192104186878 10.0
  endloop
endfacet
facet normal -1.0 0.0 0.0
  outer loop
    vertex -576.4496200034181 972.1921041868776 10.000000000000005
    vertex -576.4496200034181 967.1921041868776 5.000000000000005
    vertex -576.4496200034181 967.1921041868776 10.000000000000005
  endloop
endfacet
facet normal -1.0 0.0 0.0
  outer loop
    vertex -576.4496200034181 967.1921041868776 5.000000000000005
    vertex -576.4496200034181 972.1921041868776 10.000000000000005
    vertex -576.4496200034181 967.1921041868776 0.0
  endloop
endfacet
facet normal -1.0 0.0 0.0
  outer loop
    vertex -576.4496200034181 967.1921041868776 0.0
    vertex -576.4496200034181 972.1921041868776 10.000000000000005
    vertex -576.4496200034181 972.1921041868776 5.639932965095795e-15
  endloop
endfacet
facet normal -1.0 0.0 0.0
  outer loop
    vertex -576.4496200034181 967.1921041868776 5.000000000000005
    vertex -576.4496200034181 960.1921041868776 3.9999999999999996
    vertex -576.4496200034181 960.1921041868776 5.000000000000005
  endloop
endfacet
facet normal -1.0 0.0 0.0
  outer loop
    vertex -576.4496200034181 960.1921041868776 3.9999999999999996
    vertex -576.4496200034181 967.1921041868776 5.000000000000005
    vertex -576.4496200034181 967.1921041868776 0.0
  endloop
endfacet
facet normal 0.0 -1.0 0.0
  outer loop
    vertex -465.44962000341803 967.1921041868776 10.000000000000004
    vertex -576.4496200034181 967.1921041868776 5.000000000000005
    vertex -465.44962000341803 967.1921041868776 5.000000000000002
  endloop
endfacet
facet normal 0.0 -1.0 0.0
  outer loop
    vertex -576.4496200034181 967.1921041868776 5.000000000000005
    vertex -465.44962000341803 967.1921041868776 10.000000000000004
    vertex -576.4496200034181 967.1921041868776 10.000000000000005
  endloop
endfacet
facet normal -0.9238795325114652 0.382683432364659 -4.768216330363739e-17
  outer loop
    vertex -500.0089244814276 969.3038756192243 10.0
    vertex -500.15877511518454 968.9421041868776 7.049916206369744e-15
    vertex -500.15877511518454 968.9421041868776 10.0
  endloop
endfacet
facet normal -0.9238795325114652 0.382683432364659 -4.768216330363739e-17
  outer loop
    vertex -500.15877511518454 968.9421041868776 7.049916206369744e-15
    vertex -500.0089244814276 969.3038756192243 10.0
    vertex -500.0089244814276 969.3038756192243 7.049916206369744e-15
  endloop
endfacet
facet normal 1.0 -3.411283916929995e-15 -4.895253996316517e-15
  outer loop
    vertex -465.44962000341815 967.1921041868776 -2.7084594879794467e-15
    vertex -465.44962000341803 960.1921041868776 5.000000000000002
    vertex -465.44962000341815 960.1921041868776 3.999999999999997
  endloop
endfacet
facet normal 1.0 -3.411283916929995e-15 -4.895253996316517e-15
  outer loop
    vertex -465.44962000341803 960.1921041868776 5.000000000000002
    vertex -465.44962000341815 967.1921041868776 -2.7084594879794467e-15
    vertex -465.44962000341803 967.1921041868776 5.000000000000002
  endloop
endfacet
facet normal 1.0 -3.411283916929995e-15 -4.895253996316517e-15
  outer loop
    vertex -465.44962000341803 967.1921041868776 5.000000000000002
    vertex -465.44962000341815 967.1921041868776 -2.7084594879794467e-15
    vertex -465.44962000341803 972.1921041868776 2.9314734771163482e-15
  endloop
endfacet
facet normal 1.0 -3.411283916929995e-15 -4.895253996316517e-15
  outer loop
    vertex -465.44962000341803 967.1921041868776 5.000000000000002
    vertex -465.44962000341803 972.1921041868776 2.9314734771163482e-15
    vertex -465.44962000341803 967.1921041868776 10.000000000000004
  endloop
endfacet
facet normal 1.0 -3.411283916929995e-15 -4.895253996316517e-15
  outer loop
    vertex -465.44962000341803 967.1921041868776 10.000000000000004
    vertex -465.44962000341803 972.1921041868776 2.9314734771163482e-15
    vertex -465.44962000341803 972.1921041868776 10.000000000000004
  endloop
endfacet
endsolid Station meteo2
