solid Station meteo2
facet normal 0.0 0.0 -1.0
  outer loop
    vertex -293.26040956103463 1254.3557102030818 -1.8047785488306544e-13
    vertex -293.26040956103463 1251.7675197520566 -1.8047785488306544e-13
    vertex -293.4307804295893 1253.0616149775692 -1.8047785488306544e-13
  endloop
endfacet
facet normal 0.0 0.0 -1.0
  outer loop
    vertex -293.26040956103463 1251.7675197520566 -1.8047785488306544e-13
    vertex -293.26040956103463 1254.3557102030818 -1.8047785488306544e-13
    vertex -292.7609074485115 1255.5616149775692 -1.8047785488306544e-13
  endloop
endfacet
facet normal 0.0 0.0 -1.0
  outer loop
    vertex -293.26040956103463 1251.7675197520566 -1.8047785488306544e-13
    vertex -292.7609074485115 1255.5616149775692 -1.8047785488306544e-13
    vertex -292.7609074485115 1250.5616149775692 -1.8047785488306544e-13
  endloop
endfacet
facet normal 0.0 0.0 -1.0
  outer loop
    vertex -292.7609074485115 1250.5616149775692 -1.8047785488306544e-13
    vertex -292.7609074485115 1255.5616149775692 -1.8047785488306544e-13
    vertex -291.96631433552204 1256.597148883502 -1.8047785488306544e-13
  endloop
endfacet
facet normal 0.0 0.0 -1.0
  outer loop
    vertex -292.7609074485115 1250.5616149775692 -1.8047785488306544e-13
    vertex -291.96631433552204 1256.597148883502 -1.8047785488306544e-13
    vertex -291.96631433552204 1249.5260810716366 -1.8047785488306544e-13
  endloop
endfacet
facet normal 0.0 0.0 -1.0
  outer loop
    vertex -291.96631433552204 1249.5260810716366 -1.8047785488306544e-13
    vertex -291.96631433552204 1256.597148883502 -1.8047785488306544e-13
    vertex -290.9307804295893 1257.3917419964914 -1.8047785488306544e-13
  endloop
endfacet
facet normal 0.0 0.0 -1.0
  outer loop
    vertex -291.96631433552204 1249.5260810716366 -1.8047785488306544e-13
    vertex -290.9307804295893 1257.3917419964914 -1.8047785488306544e-13
    vertex -290.9307804295893 1248.731487958647 -1.8047785488306544e-13
  endloop
endfacet
facet normal 0.0 0.0 -1.0
  outer loop
    vertex -290.9307804295893 1248.731487958647 -1.8047785488306544e-13
    vertex -290.9307804295893 1257.3917419964914 -1.8047785488306544e-13
    vertex -290.43078042958933 1253.0616149775692 -1.8047785488306544e-13
  endloop
endfacet
facet normal 0.0 0.0 -1.0
  outer loop
    vertex -290.43078042958933 1253.0616149775692 -1.8047785488306544e-13
    vertex -290.9307804295893 1257.3917419964914 -1.8047785488306544e-13
    vertex -290.3626320821674 1253.5792530677743 -1.8047785488306544e-13
  endloop
endfacet
facet normal 0.0 0.0 -1.0
  outer loop
    vertex -290.3626320821674 1253.5792530677743 -1.8047785488306544e-13
    vertex -290.9307804295893 1257.3917419964914 -1.8047785488306544e-13
    vertex -289.72487565510187 1257.8912441090147 -1.8047785488306544e-13
  endloop
endfacet
facet normal 0.0 0.0 -1.0
  outer loop
    vertex -290.3626320821674 1253.5792530677743 -1.8047785488306544e-13
    vertex -289.72487565510187 1257.8912441090147 -1.8047785488306544e-13
    vertex -290.1628312371582 1254.0616149775694 -1.8047785488306544e-13
  endloop
endfacet
facet normal 0.0 0.0 -1.0
  outer loop
    vertex -290.1628312371582 1254.0616149775694 -1.8047785488306544e-13
    vertex -289.72487565510187 1257.8912441090147 -1.8047785488306544e-13
    vertex -289.8449939919624 1254.4758285399423 -1.8047785488306544e-13
  endloop
endfacet
facet normal 0.0 0.0 -1.0
  outer loop
    vertex -289.8449939919624 1254.4758285399423 -1.8047785488306544e-13
    vertex -289.72487565510187 1257.8912441090147 -1.8047785488306544e-13
    vertex -289.43078042958933 1254.793665785138 -1.8047785488306544e-13
  endloop
endfacet
facet normal 0.0 0.0 -1.0
  outer loop
    vertex -289.43078042958933 1254.793665785138 -1.8047785488306544e-13
    vertex -289.72487565510187 1257.8912441090147 -1.8047785488306544e-13
    vertex -288.43078042958933 1258.0616149775694 -1.8047785488306544e-13
  endloop
endfacet
facet normal 0.0 0.0 -1.0
  outer loop
    vertex -289.43078042958933 1254.793665785138 -1.8047785488306544e-13
    vertex -288.43078042958933 1258.0616149775694 -1.8047785488306544e-13
    vertex -288.94841851979436 1254.9934666301474 -1.8047785488306544e-13
  endloop
endfacet
facet normal 0.0 0.0 -1.0
  outer loop
    vertex -288.94841851979436 1254.9934666301474 -1.8047785488306544e-13
    vertex -288.43078042958933 1258.0616149775694 -1.8047785488306544e-13
    vertex -288.43078042958933 1255.0616149775692 -1.8047785488306544e-13
  endloop
endfacet
facet normal 0.0 0.0 -1.0
  outer loop
    vertex -288.43078042958933 1255.0616149775692 -1.8047785488306544e-13
    vertex -288.43078042958933 1258.0616149775694 -1.8047785488306544e-13
    vertex -238.4307804295893 1255.0616149775692 -1.8047785488306544e-13
  endloop
endfacet
facet normal 0.0 0.0 -1.0
  outer loop
    vertex -288.43078042958933 1255.0616149775692 -1.8047785488306544e-13
    vertex -238.4307804295893 1255.0616149775692 -1.8047785488306544e-13
    vertex -287.91314233938425 1254.9934666301474 -1.8047785488306544e-13
  endloop
endfacet
facet normal 0.0 0.0 -1.0
  outer loop
    vertex -287.91314233938425 1254.9934666301474 -1.8047785488306544e-13
    vertex -238.4307804295893 1255.0616149775692 -1.8047785488306544e-13
    vertex -287.43078042958933 1254.793665785138 -1.8047785488306544e-13
  endloop
endfacet
facet normal 0.0 0.0 -1.0
  outer loop
    vertex -287.43078042958933 1254.793665785138 -1.8047785488306544e-13
    vertex -238.4307804295893 1255.0616149775692 -1.8047785488306544e-13
    vertex -287.0165668672162 1254.4758285399423 -1.8047785488306544e-13
  endloop
endfacet
facet normal 0.0 0.0 -1.0
  outer loop
    vertex -287.0165668672162 1254.4758285399423 -1.8047785488306544e-13
    vertex -238.4307804295893 1255.0616149775692 -1.8047785488306544e-13
    vertex -286.69872962202044 1254.0616149775694 -1.8047785488306544e-13
  endloop
endfacet
facet normal 0.0 0.0 -1.0
  outer loop
    vertex -286.69872962202044 1254.0616149775694 -1.8047785488306544e-13
    vertex -238.4307804295893 1255.0616149775692 -1.8047785488306544e-13
    vertex -286.4989287770112 1253.5792530677743 -1.8047785488306544e-13
  endloop
endfacet
facet normal 0.0 0.0 -1.0
  outer loop
    vertex -286.4989287770112 1253.5792530677743 -1.8047785488306544e-13
    vertex -238.4307804295893 1255.0616149775692 -1.8047785488306544e-13
    vertex -286.43078042958933 1253.0616149775692 -1.8047785488306544e-13
  endloop
endfacet
facet normal 0.0 0.0 -1.0
  outer loop
    vertex -290.9307804295893 1248.731487958647 -1.8047785488306544e-13
    vertex -290.3626320821674 1252.5439768873641 -1.8047785488306544e-13
    vertex -289.72487565510187 1248.231985846124 -1.8047785488306544e-13
  endloop
endfacet
facet normal 0.0 0.0 -1.0
  outer loop
    vertex -290.3626320821674 1252.5439768873641 -1.8047785488306544e-13
    vertex -290.9307804295893 1248.731487958647 -1.8047785488306544e-13
    vertex -290.43078042958933 1253.0616149775692 -1.8047785488306544e-13
  endloop
endfacet
facet normal 0.0 0.0 -1.0
  outer loop
    vertex -289.72487565510187 1248.231985846124 -1.8047785488306544e-13
    vertex -290.3626320821674 1252.5439768873641 -1.8047785488306544e-13
    vertex -290.1628312371582 1252.0616149775692 -1.8047785488306544e-13
  endloop
endfacet
facet normal 0.0 0.0 -1.0
  outer loop
    vertex -289.72487565510187 1248.231985846124 -1.8047785488306544e-13
    vertex -290.1628312371582 1252.0616149775692 -1.8047785488306544e-13
    vertex -289.8449939919624 1251.647401415196 -1.8047785488306544e-13
  endloop
endfacet
facet normal 0.0 0.0 -1.0
  outer loop
    vertex -289.72487565510187 1248.231985846124 -1.8047785488306544e-13
    vertex -289.8449939919624 1251.647401415196 -1.8047785488306544e-13
    vertex -289.43078042958933 1251.3295641700004 -1.8047785488306544e-13
  endloop
endfacet
facet normal 0.0 0.0 -1.0
  outer loop
    vertex -289.72487565510187 1248.231985846124 -1.8047785488306544e-13
    vertex -289.43078042958933 1251.3295641700004 -1.8047785488306544e-13
    vertex -288.43078042958933 1248.0616149775692 -1.8047785488306544e-13
  endloop
endfacet
facet normal 0.0 0.0 -1.0
  outer loop
    vertex -288.43078042958933 1248.0616149775692 -1.8047785488306544e-13
    vertex -289.43078042958933 1251.3295641700004 -1.8047785488306544e-13
    vertex -288.94841851979436 1251.129763324991 -1.8047785488306544e-13
  endloop
endfacet
facet normal 0.0 0.0 -1.0
  outer loop
    vertex -288.43078042958933 1248.0616149775692 -1.8047785488306544e-13
    vertex -288.94841851979436 1251.129763324991 -1.8047785488306544e-13
    vertex -288.43078042958933 1251.0616149775692 -1.8047785488306544e-13
  endloop
endfacet
facet normal 0.0 0.0 -1.0
  outer loop
    vertex -288.43078042958933 1248.0616149775692 -1.8047785488306544e-13
    vertex -288.43078042958933 1251.0616149775692 -1.8047785488306544e-13
    vertex -287.91314233938425 1251.129763324991 -1.8047785488306544e-13
  endloop
endfacet
facet normal 0.0 0.0 -1.0
  outer loop
    vertex -288.43078042958933 1248.0616149775692 -1.8047785488306544e-13
    vertex -287.91314233938425 1251.129763324991 -1.8047785488306544e-13
    vertex -238.4307804295893 1251.0616149775692 -1.8047785488306544e-13
  endloop
endfacet
facet normal 0.0 0.0 -1.0
  outer loop
    vertex -238.4307804295893 1251.0616149775692 -1.8047785488306544e-13
    vertex -287.91314233938425 1251.129763324991 -1.8047785488306544e-13
    vertex -287.43078042958933 1251.3295641700004 -1.8047785488306544e-13
  endloop
endfacet
facet normal 0.0 0.0 -1.0
  outer loop
    vertex -238.4307804295893 1251.0616149775692 -1.8047785488306544e-13
    vertex -287.43078042958933 1251.3295641700004 -1.8047785488306544e-13
    vertex -287.0165668672162 1251.647401415196 -1.8047785488306544e-13
  endloop
endfacet
facet normal 0.0 0.0 -1.0
  outer loop
    vertex -238.4307804295893 1251.0616149775692 -1.8047785488306544e-13
    vertex -287.0165668672162 1251.647401415196 -1.8047785488306544e-13
    vertex -286.69872962202044 1252.0616149775692 -1.8047785488306544e-13
  endloop
endfacet
facet normal 0.0 0.0 -1.0
  outer loop
    vertex -238.4307804295893 1251.0616149775692 -1.8047785488306544e-13
    vertex -286.69872962202044 1252.0616149775692 -1.8047785488306544e-13
    vertex -286.4989287770112 1252.5439768873641 -1.8047785488306544e-13
  endloop
endfacet
facet normal 0.0 0.0 -1.0
  outer loop
    vertex -238.4307804295893 1251.0616149775692 -1.8047785488306544e-13
    vertex -286.4989287770112 1252.5439768873641 -1.8047785488306544e-13
    vertex -286.43078042958933 1253.0616149775692 -1.8047785488306544e-13
  endloop
endfacet
facet normal 0.0 0.0 -1.0
  outer loop
    vertex -238.4307804295893 1251.0616149775692 -1.8047785488306544e-13
    vertex -286.43078042958933 1253.0616149775692 -1.8047785488306544e-13
    vertex -238.4307804295893 1255.0616149775692 -1.8047785488306544e-13
  endloop
endfacet
facet normal 0.0 0.0 -1.0
  outer loop
    vertex -238.4307804295893 1251.0616149775692 -1.8047785488306544e-13
    vertex -238.4307804295893 1255.0616149775692 -1.8047785488306544e-13
    vertex -237.91314233938425 1254.9934666301474 -1.8047785488306544e-13
  endloop
endfacet
facet normal 0.0 0.0 -1.0
  outer loop
    vertex -238.4307804295893 1251.0616149775692 -1.8047785488306544e-13
    vertex -237.91314233938425 1254.9934666301474 -1.8047785488306544e-13
    vertex -237.91314233938425 1251.129763324991 -1.8047785488306544e-13
  endloop
endfacet
facet normal 0.0 0.0 -1.0
  outer loop
    vertex -237.91314233938425 1251.129763324991 -1.8047785488306544e-13
    vertex -237.91314233938425 1254.9934666301474 -1.8047785488306544e-13
    vertex -237.4307804295893 1254.793665785138 -1.8047785488306544e-13
  endloop
endfacet
facet normal 0.0 0.0 -1.0
  outer loop
    vertex -237.91314233938425 1251.129763324991 -1.8047785488306544e-13
    vertex -237.4307804295893 1254.793665785138 -1.8047785488306544e-13
    vertex -237.4307804295893 1251.3295641700004 -1.8047785488306544e-13
  endloop
endfacet
facet normal 0.0 0.0 -1.0
  outer loop
    vertex -237.4307804295893 1251.3295641700004 -1.8047785488306544e-13
    vertex -237.4307804295893 1254.793665785138 -1.8047785488306544e-13
    vertex -237.0165668672162 1254.4758285399423 -1.8047785488306544e-13
  endloop
endfacet
facet normal 0.0 0.0 -1.0
  outer loop
    vertex -237.4307804295893 1251.3295641700004 -1.8047785488306544e-13
    vertex -237.0165668672162 1254.4758285399423 -1.8047785488306544e-13
    vertex -237.0165668672162 1251.647401415196 -1.8047785488306544e-13
  endloop
endfacet
facet normal 0.0 0.0 -1.0
  outer loop
    vertex -237.0165668672162 1251.647401415196 -1.8047785488306544e-13
    vertex -237.0165668672162 1254.4758285399423 -1.8047785488306544e-13
    vertex -236.69872962202044 1254.0616149775694 -1.8047785488306544e-13
  endloop
endfacet
facet normal 0.0 0.0 -1.0
  outer loop
    vertex -237.0165668672162 1251.647401415196 -1.8047785488306544e-13
    vertex -236.69872962202044 1254.0616149775694 -1.8047785488306544e-13
    vertex -236.69872962202044 1252.0616149775692 -1.8047785488306544e-13
  endloop
endfacet
facet normal 0.0 0.0 -1.0
  outer loop
    vertex -236.69872962202044 1252.0616149775692 -1.8047785488306544e-13
    vertex -236.69872962202044 1254.0616149775694 -1.8047785488306544e-13
    vertex -236.4989287770112 1253.5792530677743 -1.8047785488306544e-13
  endloop
endfacet
facet normal 0.0 0.0 -1.0
  outer loop
    vertex -236.69872962202044 1252.0616149775692 -1.8047785488306544e-13
    vertex -236.4989287770112 1253.5792530677743 -1.8047785488306544e-13
    vertex -236.4989287770112 1252.5439768873641 -1.8047785488306544e-13
  endloop
endfacet
facet normal 0.0 0.0 -1.0
  outer loop
    vertex -236.4989287770112 1252.5439768873641 -1.8047785488306544e-13
    vertex -236.4989287770112 1253.5792530677743 -1.8047785488306544e-13
    vertex -236.4307804295893 1253.0616149775692 -1.8047785488306544e-13
  endloop
endfacet
facet normal -0.9238795325112867 -0.3826834323650896 -0.0
  outer loop
    vertex -286.69872962202044 1254.0616149775694 4.99999999999982
    vertex -286.4989287770112 1253.5792530677743 -1.8047785488306544e-13
    vertex -286.4989287770112 1253.5792530677743 4.99999999999982
  endloop
endfacet
facet normal -0.9238795325112867 -0.3826834323650896 -0.0
  outer loop
    vertex -286.4989287770112 1253.5792530677743 -1.8047785488306544e-13
    vertex -286.69872962202044 1254.0616149775694 4.99999999999982
    vertex -286.69872962202044 1254.0616149775694 -1.8047785488306544e-13
  endloop
endfacet
facet normal 0.13052619222005216 -0.9914448613738104 0.0
  outer loop
    vertex -237.91314233938425 1251.129763324991 4.99999999999982
    vertex -238.4307804295893 1251.0616149775692 -1.8047785488306544e-13
    vertex -237.91314233938425 1251.129763324991 -1.8047785488306544e-13
  endloop
endfacet
facet normal 0.13052619222005216 -0.9914448613738104 0.0
  outer loop
    vertex -238.4307804295893 1251.0616149775692 -1.8047785488306544e-13
    vertex -237.91314233938425 1251.129763324991 4.99999999999982
    vertex -238.4307804295893 1251.0616149775692 4.99999999999982
  endloop
endfacet
facet normal -0.1305261922200515 0.9914448613738105 0.0
  outer loop
    vertex -289.72487565510187 1257.8912441090147 4.99999999999982
    vertex -288.43078042958933 1258.0616149775694 -1.8047785488306544e-13
    vertex -289.72487565510187 1257.8912441090147 -1.8047785488306544e-13
  endloop
endfacet
facet normal -0.1305261922200515 0.9914448613738105 0.0
  outer loop
    vertex -288.43078042958933 1258.0616149775694 -1.8047785488306544e-13
    vertex -289.72487565510187 1257.8912441090147 4.99999999999982
    vertex -288.43078042958933 1258.0616149775694 4.99999999999982
  endloop
endfacet
facet normal -0.38268343236509067 -0.9238795325112864 -0.0
  outer loop
    vertex -289.72487565510187 1248.231985846124 4.99999999999982
    vertex -290.9307804295893 1248.731487958647 -1.8047785488306544e-13
    vertex -289.72487565510187 1248.231985846124 -1.8047785488306544e-13
  endloop
endfacet
facet normal -0.38268343236509067 -0.9238795325112864 -0.0
  outer loop
    vertex -290.9307804295893 1248.731487958647 -1.8047785488306544e-13
    vertex -289.72487565510187 1248.231985846124 4.99999999999982
    vertex -290.9307804295893 1248.731487958647 4.99999999999982
  endloop
endfacet
facet normal -0.6087614290087209 -0.793353340291235 -0.0
  outer loop
    vertex -290.9307804295893 1248.731487958647 4.99999999999982
    vertex -291.96631433552204 1249.5260810716366 -1.8047785488306544e-13
    vertex -290.9307804295893 1248.731487958647 -1.8047785488306544e-13
  endloop
endfacet
facet normal -0.6087614290087209 -0.793353340291235 -0.0
  outer loop
    vertex -291.96631433552204 1249.5260810716366 -1.8047785488306544e-13
    vertex -290.9307804295893 1248.731487958647 4.99999999999982
    vertex -291.96631433552204 1249.5260810716366 4.99999999999982
  endloop
endfacet
facet normal 0.059892290727946634 -0.9982048454657787 0.0
  outer loop
    vertex -238.4307804295893 1251.0616149775692 4.99999999999982
    vertex -288.43078042958933 1248.0616149775692 -1.8047785488306544e-13
    vertex -238.4307804295893 1251.0616149775692 -1.8047785488306544e-13
  endloop
endfacet
facet normal 0.059892290727946634 -0.9982048454657787 0.0
  outer loop
    vertex -288.43078042958933 1248.0616149775692 -1.8047785488306544e-13
    vertex -238.4307804295893 1251.0616149775692 4.99999999999982
    vertex -288.43078042958933 1248.0616149775692 4.99999999999982
  endloop
endfacet
facet normal -0.9914448613738104 0.13052619222005168 0.0
  outer loop
    vertex -286.43078042958933 1253.0616149775692 4.99999999999982
    vertex -286.4989287770112 1252.5439768873641 -1.8047785488306544e-13
    vertex -286.4989287770112 1252.5439768873641 4.99999999999982
  endloop
endfacet
facet normal -0.9914448613738104 0.13052619222005168 0.0
  outer loop
    vertex -286.4989287770112 1252.5439768873641 -1.8047785488306544e-13
    vertex -286.43078042958933 1253.0616149775692 4.99999999999982
    vertex -286.43078042958933 1253.0616149775692 -1.8047785488306544e-13
  endloop
endfacet
facet normal 0.9914448613738104 -0.13052619222005216 0.0
  outer loop
    vertex -290.3626320821674 1253.5792530677743 -1.8047785488306544e-13
    vertex -290.43078042958933 1253.0616149775692 4.99999999999982
    vertex -290.43078042958933 1253.0616149775692 -1.8047785488306544e-13
  endloop
endfacet
facet normal 0.9914448613738104 -0.13052619222005216 0.0
  outer loop
    vertex -290.43078042958933 1253.0616149775692 4.99999999999982
    vertex -290.3626320821674 1253.5792530677743 -1.8047785488306544e-13
    vertex -290.3626320821674 1253.5792530677743 4.99999999999982
  endloop
endfacet
facet normal -0.13052619222005168 -0.9914448613738104 -0.0
  outer loop
    vertex -287.91314233938425 1254.9934666301474 4.99999999999982
    vertex -288.43078042958933 1255.0616149775692 -1.8047785488306544e-13
    vertex -287.91314233938425 1254.9934666301474 -1.8047785488306544e-13
  endloop
endfacet
facet normal -0.13052619222005168 -0.9914448613738104 -0.0
  outer loop
    vertex -288.43078042958933 1255.0616149775692 -1.8047785488306544e-13
    vertex -287.91314233938425 1254.9934666301474 4.99999999999982
    vertex -288.43078042958933 1255.0616149775692 4.99999999999982
  endloop
endfacet
facet normal -0.9238795325112867 0.38268343236509034 0.0
  outer loop
    vertex -286.4989287770112 1252.5439768873641 4.99999999999982
    vertex -286.69872962202044 1252.0616149775692 -1.8047785488306544e-13
    vertex -286.69872962202044 1252.0616149775692 4.99999999999982
  endloop
endfacet
facet normal -0.9238795325112867 0.38268343236509034 0.0
  outer loop
    vertex -286.69872962202044 1252.0616149775692 -1.8047785488306544e-13
    vertex -286.4989287770112 1252.5439768873641 4.99999999999982
    vertex -286.4989287770112 1252.5439768873641 -1.8047785488306544e-13
  endloop
endfacet
facet normal -0.7933533402912356 0.6087614290087203 0.0
  outer loop
    vertex -286.69872962202044 1252.0616149775692 4.99999999999982
    vertex -287.0165668672162 1251.647401415196 -1.8047785488306544e-13
    vertex -287.0165668672162 1251.647401415196 4.99999999999982
  endloop
endfacet
facet normal -0.7933533402912356 0.6087614290087203 0.0
  outer loop
    vertex -287.0165668672162 1251.647401415196 -1.8047785488306544e-13
    vertex -286.69872962202044 1252.0616149775692 4.99999999999982
    vertex -286.69872962202044 1252.0616149775692 -1.8047785488306544e-13
  endloop
endfacet
facet normal 0.38268343236508934 -0.9238795325112871 0.0
  outer loop
    vertex -288.94841851979436 1254.9934666301474 4.99999999999982
    vertex -289.43078042958933 1254.793665785138 -1.8047785488306544e-13
    vertex -288.94841851979436 1254.9934666301474 -1.8047785488306544e-13
  endloop
endfacet
facet normal 0.38268343236508934 -0.9238795325112871 0.0
  outer loop
    vertex -289.43078042958933 1254.793665785138 -1.8047785488306544e-13
    vertex -288.94841851979436 1254.9934666301474 4.99999999999982
    vertex -289.43078042958933 1254.793665785138 4.99999999999982
  endloop
endfacet
facet normal -0.13052619222005174 0.9914448613738104 0.0
  outer loop
    vertex -288.43078042958933 1251.0616149775692 4.99999999999982
    vertex -287.91314233938425 1251.129763324991 -1.8047785488306544e-13
    vertex -288.43078042958933 1251.0616149775692 -1.8047785488306544e-13
  endloop
endfacet
facet normal -0.13052619222005174 0.9914448613738104 0.0
  outer loop
    vertex -287.91314233938425 1251.129763324991 -1.8047785488306544e-13
    vertex -288.43078042958933 1251.0616149775692 4.99999999999982
    vertex -287.91314233938425 1251.129763324991 4.99999999999982
  endloop
endfacet
facet normal 0.13052619222005202 0.9914448613738104 0.0
  outer loop
    vertex -288.94841851979436 1251.129763324991 4.99999999999982
    vertex -288.43078042958933 1251.0616149775692 -1.8047785488306544e-13
    vertex -288.94841851979436 1251.129763324991 -1.8047785488306544e-13
  endloop
endfacet
facet normal 0.13052619222005202 0.9914448613738104 0.0
  outer loop
    vertex -288.43078042958933 1251.0616149775692 -1.8047785488306544e-13
    vertex -288.94841851979436 1251.129763324991 4.99999999999982
    vertex -288.43078042958933 1251.0616149775692 4.99999999999982
  endloop
endfacet
facet normal 0.6087614290087153 0.7933533402912394 0.0
  outer loop
    vertex -237.4307804295893 1254.793665785138 4.99999999999982
    vertex -237.0165668672162 1254.4758285399423 -1.8047785488306544e-13
    vertex -237.4307804295893 1254.793665785138 -1.8047785488306544e-13
  endloop
endfacet
facet normal 0.6087614290087153 0.7933533402912394 0.0
  outer loop
    vertex -237.0165668672162 1254.4758285399423 -1.8047785488306544e-13
    vertex -237.4307804295893 1254.793665785138 4.99999999999982
    vertex -237.0165668672162 1254.4758285399423 4.99999999999982
  endloop
endfacet
facet normal 0.7933533402912349 -0.6087614290087209 0.0
  outer loop
    vertex -289.8449939919624 1254.4758285399423 -1.8047785488306544e-13
    vertex -290.1628312371582 1254.0616149775694 4.99999999999982
    vertex -290.1628312371582 1254.0616149775694 -1.8047785488306544e-13
  endloop
endfacet
facet normal 0.7933533402912349 -0.6087614290087209 0.0
  outer loop
    vertex -290.1628312371582 1254.0616149775694 4.99999999999982
    vertex -289.8449939919624 1254.4758285399423 -1.8047785488306544e-13
    vertex -289.8449939919624 1254.4758285399423 4.99999999999982
  endloop
endfacet
facet normal -0.3826834323650899 -0.9238795325112867 -0.0
  outer loop
    vertex -287.43078042958933 1254.793665785138 4.99999999999982
    vertex -287.91314233938425 1254.9934666301474 -1.8047785488306544e-13
    vertex -287.43078042958933 1254.793665785138 -1.8047785488306544e-13
  endloop
endfacet
facet normal -0.3826834323650899 -0.9238795325112867 -0.0
  outer loop
    vertex -287.91314233938425 1254.9934666301474 -1.8047785488306544e-13
    vertex -287.43078042958933 1254.793665785138 4.99999999999982
    vertex -287.91314233938425 1254.9934666301474 4.99999999999982
  endloop
endfacet
facet normal -0.6087614290087203 0.7933533402912356 0.0
  outer loop
    vertex -291.96631433552204 1256.597148883502 4.99999999999982
    vertex -290.9307804295893 1257.3917419964914 -1.8047785488306544e-13
    vertex -291.96631433552204 1256.597148883502 -1.8047785488306544e-13
  endloop
endfacet
facet normal -0.6087614290087203 0.7933533402912356 0.0
  outer loop
    vertex -290.9307804295893 1257.3917419964914 -1.8047785488306544e-13
    vertex -291.96631433552204 1256.597148883502 4.99999999999982
    vertex -290.9307804295893 1257.3917419964914 4.99999999999982
  endloop
endfacet
facet normal 0.6087614290087154 -0.7933533402912392 0.0
  outer loop
    vertex -237.0165668672162 1251.647401415196 4.99999999999982
    vertex -237.4307804295893 1251.3295641700004 -1.8047785488306544e-13
    vertex -237.0165668672162 1251.647401415196 -1.8047785488306544e-13
  endloop
endfacet
facet normal 0.6087614290087154 -0.7933533402912392 0.0
  outer loop
    vertex -237.4307804295893 1251.3295641700004 -1.8047785488306544e-13
    vertex -237.0165668672162 1251.647401415196 4.99999999999982
    vertex -237.4307804295893 1251.3295641700004 4.99999999999982
  endloop
endfacet
facet normal -0.9238795325112865 0.38268343236509056 0.0
  outer loop
    vertex -292.7609074485115 1255.5616149775692 4.99999999999982
    vertex -293.26040956103463 1254.3557102030818 -1.8047785488306544e-13
    vertex -293.26040956103463 1254.3557102030818 4.99999999999982
  endloop
endfacet
facet normal -0.9238795325112865 0.38268343236509056 0.0
  outer loop
    vertex -293.26040956103463 1254.3557102030818 -1.8047785488306544e-13
    vertex -292.7609074485115 1255.5616149775692 4.99999999999982
    vertex -292.7609074485115 1255.5616149775692 -1.8047785488306544e-13
  endloop
endfacet
facet normal -0.38268343236508956 0.9238795325112868 0.0
  outer loop
    vertex -287.91314233938425 1251.129763324991 4.99999999999982
    vertex -287.43078042958933 1251.3295641700004 -1.8047785488306544e-13
    vertex -287.91314233938425 1251.129763324991 -1.8047785488306544e-13
  endloop
endfacet
facet normal -0.38268343236508956 0.9238795325112868 0.0
  outer loop
    vertex -287.43078042958933 1251.3295641700004 -1.8047785488306544e-13
    vertex -287.91314233938425 1251.129763324991 4.99999999999982
    vertex -287.43078042958933 1251.3295641700004 4.99999999999982
  endloop
endfacet
facet normal 0.0 0.0 1.0
  outer loop
    vertex -293.26040956103463 1251.7675197520566 4.99999999999982
    vertex -293.26040956103463 1254.3557102030818 4.99999999999982
    vertex -293.4307804295893 1253.0616149775692 4.99999999999982
  endloop
endfacet
facet normal 0.0 0.0 1.0
  outer loop
    vertex -293.26040956103463 1254.3557102030818 4.99999999999982
    vertex -293.26040956103463 1251.7675197520566 4.99999999999982
    vertex -292.7609074485115 1250.5616149775692 4.99999999999982
  endloop
endfacet
facet normal 0.0 0.0 1.0
  outer loop
    vertex -293.26040956103463 1254.3557102030818 4.99999999999982
    vertex -292.7609074485115 1250.5616149775692 4.99999999999982
    vertex -292.7609074485115 1255.5616149775692 4.99999999999982
  endloop
endfacet
facet normal 0.0 0.0 1.0
  outer loop
    vertex -292.7609074485115 1255.5616149775692 4.99999999999982
    vertex -292.7609074485115 1250.5616149775692 4.99999999999982
    vertex -291.96631433552204 1249.5260810716366 4.99999999999982
  endloop
endfacet
facet normal 0.0 0.0 1.0
  outer loop
    vertex -292.7609074485115 1255.5616149775692 4.99999999999982
    vertex -291.96631433552204 1249.5260810716366 4.99999999999982
    vertex -291.96631433552204 1256.597148883502 4.99999999999982
  endloop
endfacet
facet normal 0.0 0.0 1.0
  outer loop
    vertex -291.96631433552204 1256.597148883502 4.99999999999982
    vertex -291.96631433552204 1249.5260810716366 4.99999999999982
    vertex -290.9307804295893 1248.731487958647 4.99999999999982
  endloop
endfacet
facet normal 0.0 0.0 1.0
  outer loop
    vertex -291.96631433552204 1256.597148883502 4.99999999999982
    vertex -290.9307804295893 1248.731487958647 4.99999999999982
    vertex -290.9307804295893 1257.3917419964914 4.99999999999982
  endloop
endfacet
facet normal 0.0 0.0 1.0
  outer loop
    vertex -290.9307804295893 1257.3917419964914 4.99999999999982
    vertex -290.9307804295893 1248.731487958647 4.99999999999982
    vertex -290.43078042958933 1253.0616149775692 4.99999999999982
  endloop
endfacet
facet normal 0.0 0.0 1.0
  outer loop
    vertex -290.43078042958933 1253.0616149775692 4.99999999999982
    vertex -290.9307804295893 1248.731487958647 4.99999999999982
    vertex -290.3626320821674 1252.5439768873641 4.99999999999982
  endloop
endfacet
facet normal 0.0 0.0 1.0
  outer loop
    vertex -290.3626320821674 1252.5439768873641 4.99999999999982
    vertex -290.9307804295893 1248.731487958647 4.99999999999982
    vertex -289.72487565510187 1248.231985846124 4.99999999999982
  endloop
endfacet
facet normal 0.0 0.0 1.0
  outer loop
    vertex -290.3626320821674 1252.5439768873641 4.99999999999982
    vertex -289.72487565510187 1248.231985846124 4.99999999999982
    vertex -290.1628312371582 1252.0616149775692 4.99999999999982
  endloop
endfacet
facet normal 0.0 0.0 1.0
  outer loop
    vertex -290.1628312371582 1252.0616149775692 4.99999999999982
    vertex -289.72487565510187 1248.231985846124 4.99999999999982
    vertex -289.8449939919624 1251.647401415196 4.99999999999982
  endloop
endfacet
facet normal 0.0 0.0 1.0
  outer loop
    vertex -289.8449939919624 1251.647401415196 4.99999999999982
    vertex -289.72487565510187 1248.231985846124 4.99999999999982
    vertex -289.43078042958933 1251.3295641700004 4.99999999999982
  endloop
endfacet
facet normal 0.0 0.0 1.0
  outer loop
    vertex -289.43078042958933 1251.3295641700004 4.99999999999982
    vertex -289.72487565510187 1248.231985846124 4.99999999999982
    vertex -288.43078042958933 1248.0616149775692 4.99999999999982
  endloop
endfacet
facet normal 0.0 0.0 1.0
  outer loop
    vertex -289.43078042958933 1251.3295641700004 4.99999999999982
    vertex -288.43078042958933 1248.0616149775692 4.99999999999982
    vertex -288.94841851979436 1251.129763324991 4.99999999999982
  endloop
endfacet
facet normal 0.0 0.0 1.0
  outer loop
    vertex -288.94841851979436 1251.129763324991 4.99999999999982
    vertex -288.43078042958933 1248.0616149775692 4.99999999999982
    vertex -288.43078042958933 1251.0616149775692 4.99999999999982
  endloop
endfacet
facet normal 0.0 0.0 1.0
  outer loop
    vertex -288.43078042958933 1251.0616149775692 4.99999999999982
    vertex -288.43078042958933 1248.0616149775692 4.99999999999982
    vertex -238.4307804295893 1251.0616149775692 4.99999999999982
  endloop
endfacet
facet normal 0.0 0.0 1.0
  outer loop
    vertex -288.43078042958933 1251.0616149775692 4.99999999999982
    vertex -238.4307804295893 1251.0616149775692 4.99999999999982
    vertex -287.91314233938425 1251.129763324991 4.99999999999982
  endloop
endfacet
facet normal 0.0 0.0 1.0
  outer loop
    vertex -287.91314233938425 1251.129763324991 4.99999999999982
    vertex -238.4307804295893 1251.0616149775692 4.99999999999982
    vertex -287.43078042958933 1251.3295641700004 4.99999999999982
  endloop
endfacet
facet normal 0.0 0.0 1.0
  outer loop
    vertex -287.43078042958933 1251.3295641700004 4.99999999999982
    vertex -238.4307804295893 1251.0616149775692 4.99999999999982
    vertex -287.0165668672162 1251.647401415196 4.99999999999982
  endloop
endfacet
facet normal 0.0 0.0 1.0
  outer loop
    vertex -287.0165668672162 1251.647401415196 4.99999999999982
    vertex -238.4307804295893 1251.0616149775692 4.99999999999982
    vertex -286.69872962202044 1252.0616149775692 4.99999999999982
  endloop
endfacet
facet normal 0.0 0.0 1.0
  outer loop
    vertex -286.69872962202044 1252.0616149775692 4.99999999999982
    vertex -238.4307804295893 1251.0616149775692 4.99999999999982
    vertex -286.4989287770112 1252.5439768873641 4.99999999999982
  endloop
endfacet
facet normal 0.0 0.0 1.0
  outer loop
    vertex -286.4989287770112 1252.5439768873641 4.99999999999982
    vertex -238.4307804295893 1251.0616149775692 4.99999999999982
    vertex -286.43078042958933 1253.0616149775692 4.99999999999982
  endloop
endfacet
facet normal 0.0 0.0 1.0
  outer loop
    vertex -290.9307804295893 1257.3917419964914 4.99999999999982
    vertex -290.3626320821674 1253.5792530677743 4.99999999999982
    vertex -289.72487565510187 1257.8912441090147 4.99999999999982
  endloop
endfacet
facet normal 0.0 0.0 1.0
  outer loop
    vertex -290.3626320821674 1253.5792530677743 4.99999999999982
    vertex -290.9307804295893 1257.3917419964914 4.99999999999982
    vertex -290.43078042958933 1253.0616149775692 4.99999999999982
  endloop
endfacet
facet normal 0.0 0.0 1.0
  outer loop
    vertex -289.72487565510187 1257.8912441090147 4.99999999999982
    vertex -290.3626320821674 1253.5792530677743 4.99999999999982
    vertex -290.1628312371582 1254.0616149775694 4.99999999999982
  endloop
endfacet
facet normal 0.0 0.0 1.0
  outer loop
    vertex -289.72487565510187 1257.8912441090147 4.99999999999982
    vertex -290.1628312371582 1254.0616149775694 4.99999999999982
    vertex -289.8449939919624 1254.4758285399423 4.99999999999982
  endloop
endfacet
facet normal 0.0 0.0 1.0
  outer loop
    vertex -289.72487565510187 1257.8912441090147 4.99999999999982
    vertex -289.8449939919624 1254.4758285399423 4.99999999999982
    vertex -289.43078042958933 1254.793665785138 4.99999999999982
  endloop
endfacet
facet normal 0.0 0.0 1.0
  outer loop
    vertex -289.72487565510187 1257.8912441090147 4.99999999999982
    vertex -289.43078042958933 1254.793665785138 4.99999999999982
    vertex -288.43078042958933 1258.0616149775694 4.99999999999982
  endloop
endfacet
facet normal 0.0 0.0 1.0
  outer loop
    vertex -288.43078042958933 1258.0616149775694 4.99999999999982
    vertex -289.43078042958933 1254.793665785138 4.99999999999982
    vertex -288.94841851979436 1254.9934666301474 4.99999999999982
  endloop
endfacet
facet normal 0.0 0.0 1.0
  outer loop
    vertex -288.43078042958933 1258.0616149775694 4.99999999999982
    vertex -288.94841851979436 1254.9934666301474 4.99999999999982
    vertex -288.43078042958933 1255.0616149775692 4.99999999999982
  endloop
endfacet
facet normal 0.0 0.0 1.0
  outer loop
    vertex -288.43078042958933 1258.0616149775694 4.99999999999982
    vertex -288.43078042958933 1255.0616149775692 4.99999999999982
    vertex -287.91314233938425 1254.9934666301474 4.99999999999982
  endloop
endfacet
facet normal 0.0 0.0 1.0
  outer loop
    vertex -288.43078042958933 1258.0616149775694 4.99999999999982
    vertex -287.91314233938425 1254.9934666301474 4.99999999999982
    vertex -238.4307804295893 1255.0616149775692 4.99999999999982
  endloop
endfacet
facet normal 0.0 0.0 1.0
  outer loop
    vertex -238.4307804295893 1255.0616149775692 4.99999999999982
    vertex -287.91314233938425 1254.9934666301474 4.99999999999982
    vertex -287.43078042958933 1254.793665785138 4.99999999999982
  endloop
endfacet
facet normal 0.0 0.0 1.0
  outer loop
    vertex -238.4307804295893 1255.0616149775692 4.99999999999982
    vertex -287.43078042958933 1254.793665785138 4.99999999999982
    vertex -287.0165668672162 1254.4758285399423 4.99999999999982
  endloop
endfacet
facet normal 0.0 0.0 1.0
  outer loop
    vertex -238.4307804295893 1255.0616149775692 4.99999999999982
    vertex -287.0165668672162 1254.4758285399423 4.99999999999982
    vertex -286.69872962202044 1254.0616149775694 4.99999999999982
  endloop
endfacet
facet normal 0.0 0.0 1.0
  outer loop
    vertex -238.4307804295893 1255.0616149775692 4.99999999999982
    vertex -286.69872962202044 1254.0616149775694 4.99999999999982
    vertex -286.4989287770112 1253.5792530677743 4.99999999999982
  endloop
endfacet
facet normal 0.0 0.0 1.0
  outer loop
    vertex -238.4307804295893 1255.0616149775692 4.99999999999982
    vertex -286.4989287770112 1253.5792530677743 4.99999999999982
    vertex -286.43078042958933 1253.0616149775692 4.99999999999982
  endloop
endfacet
facet normal 0.0 0.0 1.0
  outer loop
    vertex -238.4307804295893 1255.0616149775692 4.99999999999982
    vertex -286.43078042958933 1253.0616149775692 4.99999999999982
    vertex -238.4307804295893 1251.0616149775692 4.99999999999982
  endloop
endfacet
facet normal 0.0 0.0 1.0
  outer loop
    vertex -238.4307804295893 1255.0616149775692 4.99999999999982
    vertex -238.4307804295893 1251.0616149775692 4.99999999999982
    vertex -237.91314233938425 1251.129763324991 4.99999999999982
  endloop
endfacet
facet normal 0.0 0.0 1.0
  outer loop
    vertex -238.4307804295893 1255.0616149775692 4.99999999999982
    vertex -237.91314233938425 1251.129763324991 4.99999999999982
    vertex -237.91314233938425 1254.9934666301474 4.99999999999982
  endloop
endfacet
facet normal 0.0 0.0 1.0
  outer loop
    vertex -237.91314233938425 1254.9934666301474 4.99999999999982
    vertex -237.91314233938425 1251.129763324991 4.99999999999982
    vertex -237.4307804295893 1251.3295641700004 4.99999999999982
  endloop
endfacet
facet normal 0.0 0.0 1.0
  outer loop
    vertex -237.91314233938425 1254.9934666301474 4.99999999999982
    vertex -237.4307804295893 1251.3295641700004 4.99999999999982
    vertex -237.4307804295893 1254.793665785138 4.99999999999982
  endloop
endfacet
facet normal 0.0 0.0 1.0
  outer loop
    vertex -237.4307804295893 1254.793665785138 4.99999999999982
    vertex -237.4307804295893 1251.3295641700004 4.99999999999982
    vertex -237.0165668672162 1251.647401415196 4.99999999999982
  endloop
endfacet
facet normal 0.0 0.0 1.0
  outer loop
    vertex -237.4307804295893 1254.793665785138 4.99999999999982
    vertex -237.0165668672162 1251.647401415196 4.99999999999982
    vertex -237.0165668672162 1254.4758285399423 4.99999999999982
  endloop
endfacet
facet normal 0.0 0.0 1.0
  outer loop
    vertex -237.0165668672162 1254.4758285399423 4.99999999999982
    vertex -237.0165668672162 1251.647401415196 4.99999999999982
    vertex -236.69872962202044 1252.0616149775692 4.99999999999982
  endloop
endfacet
facet normal 0.0 0.0 1.0
  outer loop
    vertex -237.0165668672162 1254.4758285399423 4.99999999999982
    vertex -236.69872962202044 1252.0616149775692 4.99999999999982
    vertex -236.69872962202044 1254.0616149775694 4.99999999999982
  endloop
endfacet
facet normal 0.0 0.0 1.0
  outer loop
    vertex -236.69872962202044 1254.0616149775694 4.99999999999982
    vertex -236.69872962202044 1252.0616149775692 4.99999999999982
    vertex -236.4989287770112 1252.5439768873641 4.99999999999982
  endloop
endfacet
facet normal 0.0 0.0 1.0
  outer loop
    vertex -236.69872962202044 1254.0616149775694 4.99999999999982
    vertex -236.4989287770112 1252.5439768873641 4.99999999999982
    vertex -236.4989287770112 1253.5792530677743 4.99999999999982
  endloop
endfacet
facet normal 0.0 0.0 1.0
  outer loop
    vertex -236.4989287770112 1253.5792530677743 4.99999999999982
    vertex -236.4989287770112 1252.5439768873641 4.99999999999982
    vertex -236.4307804295893 1253.0616149775692 4.99999999999982
  endloop
endfacet
facet normal -0.3826834323650895 0.923879532511287 0.0
  outer loop
    vertex -290.9307804295893 1257.3917419964914 4.99999999999982
    vertex -289.72487565510187 1257.8912441090147 -1.8047785488306544e-13
    vertex -290.9307804295893 1257.3917419964914 -1.8047785488306544e-13
  endloop
endfacet
facet normal -0.3826834323650895 0.923879532511287 0.0
  outer loop
    vertex -289.72487565510187 1257.8912441090147 -1.8047785488306544e-13
    vertex -290.9307804295893 1257.3917419964914 4.99999999999982
    vertex -289.72487565510187 1257.8912441090147 4.99999999999982
  endloop
endfacet
facet normal 0.9238795325112901 -0.3826834323650823 0.0
  outer loop
    vertex -236.4989287770112 1252.5439768873641 -1.8047785488306544e-13
    vertex -236.69872962202044 1252.0616149775692 4.99999999999982
    vertex -236.69872962202044 1252.0616149775692 -1.8047785488306544e-13
  endloop
endfacet
facet normal 0.9238795325112901 -0.3826834323650823 0.0
  outer loop
    vertex -236.69872962202044 1252.0616149775692 4.99999999999982
    vertex -236.4989287770112 1252.5439768873641 -1.8047785488306544e-13
    vertex -236.4989287770112 1252.5439768873641 4.99999999999982
  endloop
endfacet
facet normal 0.6087614290087203 -0.7933533402912355 0.0
  outer loop
    vertex -289.43078042958933 1254.793665785138 4.99999999999982
    vertex -289.8449939919624 1254.4758285399423 -1.8047785488306544e-13
    vertex -289.43078042958933 1254.793665785138 -1.8047785488306544e-13
  endloop
endfacet
facet normal 0.6087614290087203 -0.7933533402912355 0.0
  outer loop
    vertex -289.8449939919624 1254.4758285399423 -1.8047785488306544e-13
    vertex -289.43078042958933 1254.793665785138 4.99999999999982
    vertex -289.8449939919624 1254.4758285399423 4.99999999999982
  endloop
endfacet
facet normal -0.7933533402912355 -0.6087614290087202 -0.0
  outer loop
    vertex -287.0165668672162 1254.4758285399423 4.99999999999982
    vertex -286.69872962202044 1254.0616149775694 -1.8047785488306544e-13
    vertex -286.69872962202044 1254.0616149775694 4.99999999999982
  endloop
endfacet
facet normal -0.7933533402912355 -0.6087614290087202 -0.0
  outer loop
    vertex -286.69872962202044 1254.0616149775694 -1.8047785488306544e-13
    vertex -287.0165668672162 1254.4758285399423 4.99999999999982
    vertex -287.0165668672162 1254.4758285399423 -1.8047785488306544e-13
  endloop
endfacet
facet normal -0.13052619222005202 -0.9914448613738105 -0.0
  outer loop
    vertex -288.43078042958933 1248.0616149775692 4.99999999999982
    vertex -289.72487565510187 1248.231985846124 -1.8047785488306544e-13
    vertex -288.43078042958933 1248.0616149775692 -1.8047785488306544e-13
  endloop
endfacet
facet normal -0.13052619222005202 -0.9914448613738105 -0.0
  outer loop
    vertex -289.72487565510187 1248.231985846124 -1.8047785488306544e-13
    vertex -288.43078042958933 1248.0616149775692 4.99999999999982
    vertex -289.72487565510187 1248.231985846124 4.99999999999982
  endloop
endfacet
facet normal 0.13052619222005124 -0.9914448613738106 0.0
  outer loop
    vertex -288.43078042958933 1255.0616149775692 4.99999999999982
    vertex -288.94841851979436 1254.9934666301474 -1.8047785488306544e-13
    vertex -288.43078042958933 1255.0616149775692 -1.8047785488306544e-13
  endloop
endfacet
facet normal 0.13052619222005124 -0.9914448613738106 0.0
  outer loop
    vertex -288.94841851979436 1254.9934666301474 -1.8047785488306544e-13
    vertex -288.43078042958933 1255.0616149775692 4.99999999999982
    vertex -288.94841851979436 1254.9934666301474 4.99999999999982
  endloop
endfacet
facet normal -0.9914448613738104 -0.1305261922200518 -0.0
  outer loop
    vertex -286.4989287770112 1253.5792530677743 4.99999999999982
    vertex -286.43078042958933 1253.0616149775692 -1.8047785488306544e-13
    vertex -286.43078042958933 1253.0616149775692 4.99999999999982
  endloop
endfacet
facet normal -0.9914448613738104 -0.1305261922200518 -0.0
  outer loop
    vertex -286.43078042958933 1253.0616149775692 -1.8047785488306544e-13
    vertex -286.4989287770112 1253.5792530677743 4.99999999999982
    vertex -286.4989287770112 1253.5792530677743 -1.8047785488306544e-13
  endloop
endfacet
facet normal 0.3826834323650902 0.9238795325112867 0.0
  outer loop
    vertex -237.91314233938425 1254.9934666301474 4.99999999999982
    vertex -237.4307804295893 1254.793665785138 -1.8047785488306544e-13
    vertex -237.91314233938425 1254.9934666301474 -1.8047785488306544e-13
  endloop
endfacet
facet normal 0.3826834323650902 0.9238795325112867 0.0
  outer loop
    vertex -237.4307804295893 1254.793665785138 -1.8047785488306544e-13
    vertex -237.91314233938425 1254.9934666301474 4.99999999999982
    vertex -237.4307804295893 1254.793665785138 4.99999999999982
  endloop
endfacet
facet normal 0.3826834323650905 0.9238795325112865 0.0
  outer loop
    vertex -289.43078042958933 1251.3295641700004 4.99999999999982
    vertex -288.94841851979436 1251.129763324991 -1.8047785488306544e-13
    vertex -289.43078042958933 1251.3295641700004 -1.8047785488306544e-13
  endloop
endfacet
facet normal 0.3826834323650905 0.9238795325112865 0.0
  outer loop
    vertex -288.94841851979436 1251.129763324991 -1.8047785488306544e-13
    vertex -289.43078042958933 1251.3295641700004 4.99999999999982
    vertex -288.94841851979436 1251.129763324991 4.99999999999982
  endloop
endfacet
facet normal -0.7933533402912356 -0.6087614290087202 -0.0
  outer loop
    vertex -292.7609074485115 1250.5616149775692 4.99999999999982
    vertex -291.96631433552204 1249.5260810716366 -1.8047785488306544e-13
    vertex -291.96631433552204 1249.5260810716366 4.99999999999982
  endloop
endfacet
facet normal -0.7933533402912356 -0.6087614290087202 -0.0
  outer loop
    vertex -291.96631433552204 1249.5260810716366 -1.8047785488306544e-13
    vertex -292.7609074485115 1250.5616149775692 4.99999999999982
    vertex -292.7609074485115 1250.5616149775692 -1.8047785488306544e-13
  endloop
endfacet
facet normal 0.13052619222005216 0.9914448613738104 0.0
  outer loop
    vertex -238.4307804295893 1255.0616149775692 4.99999999999982
    vertex -237.91314233938425 1254.9934666301474 -1.8047785488306544e-13
    vertex -238.4307804295893 1255.0616149775692 -1.8047785488306544e-13
  endloop
endfacet
facet normal 0.13052619222005216 0.9914448613738104 0.0
  outer loop
    vertex -237.91314233938425 1254.9934666301474 -1.8047785488306544e-13
    vertex -238.4307804295893 1255.0616149775692 4.99999999999982
    vertex -237.91314233938425 1254.9934666301474 4.99999999999982
  endloop
endfacet
facet normal -0.6087614290087202 0.7933533402912356 0.0
  outer loop
    vertex -287.43078042958933 1251.3295641700004 4.99999999999982
    vertex -287.0165668672162 1251.647401415196 -1.8047785488306544e-13
    vertex -287.43078042958933 1251.3295641700004 -1.8047785488306544e-13
  endloop
endfacet
facet normal -0.6087614290087202 0.7933533402912356 0.0
  outer loop
    vertex -287.0165668672162 1251.647401415196 -1.8047785488306544e-13
    vertex -287.43078042958933 1251.3295641700004 4.99999999999982
    vertex -287.0165668672162 1251.647401415196 4.99999999999982
  endloop
endfacet
facet normal 0.7933533402912377 0.6087614290087173 0.0
  outer loop
    vertex -237.0165668672162 1254.4758285399423 -1.8047785488306544e-13
    vertex -236.69872962202044 1254.0616149775694 4.99999999999982
    vertex -236.69872962202044 1254.0616149775694 -1.8047785488306544e-13
  endloop
endfacet
facet normal 0.7933533402912377 0.6087614290087173 0.0
  outer loop
    vertex -236.69872962202044 1254.0616149775694 4.99999999999982
    vertex -237.0165668672162 1254.4758285399423 -1.8047785488306544e-13
    vertex -237.0165668672162 1254.4758285399423 4.99999999999982
  endloop
endfacet
facet normal -0.9238795325112872 -0.3826834323650891 -0.0
  outer loop
    vertex -293.26040956103463 1251.7675197520566 4.99999999999982
    vertex -292.7609074485115 1250.5616149775692 -1.8047785488306544e-13
    vertex -292.7609074485115 1250.5616149775692 4.99999999999982
  endloop
endfacet
facet normal -0.9238795325112872 -0.3826834323650891 -0.0
  outer loop
    vertex -292.7609074485115 1250.5616149775692 -1.8047785488306544e-13
    vertex -293.26040956103463 1251.7675197520566 4.99999999999982
    vertex -293.26040956103463 1251.7675197520566 -1.8047785488306544e-13
  endloop
endfacet
facet normal 0.9914448613738104 0.1305261922200518 0.0
  outer loop
    vertex -236.4989287770112 1253.5792530677743 -1.8047785488306544e-13
    vertex -236.4307804295893 1253.0616149775692 4.99999999999982
    vertex -236.4307804295893 1253.0616149775692 -1.8047785488306544e-13
  endloop
endfacet
facet normal 0.9914448613738104 0.1305261922200518 0.0
  outer loop
    vertex -236.4307804295893 1253.0616149775692 4.99999999999982
    vertex -236.4989287770112 1253.5792530677743 -1.8047785488306544e-13
    vertex -236.4989287770112 1253.5792530677743 4.99999999999982
  endloop
endfacet
facet normal 0.9238795325112901 0.3826834323650823 0.0
  outer loop
    vertex -236.69872962202044 1254.0616149775694 -1.8047785488306544e-13
    vertex -236.4989287770112 1253.5792530677743 4.99999999999982
    vertex -236.4989287770112 1253.5792530677743 -1.8047785488306544e-13
  endloop
endfacet
facet normal 0.9238795325112901 0.3826834323650823 0.0
  outer loop
    vertex -236.4989287770112 1253.5792530677743 4.99999999999982
    vertex -236.69872962202044 1254.0616149775694 -1.8047785488306544e-13
    vertex -236.69872962202044 1254.0616149775694 4.99999999999982
  endloop
endfacet
facet normal 0.9914448613738106 0.13052619222005127 0.0
  outer loop
    vertex -290.43078042958933 1253.0616149775692 -1.8047785488306544e-13
    vertex -290.3626320821674 1252.5439768873641 4.99999999999982
    vertex -290.3626320821674 1252.5439768873641 -1.8047785488306544e-13
  endloop
endfacet
facet normal 0.9914448613738106 0.13052619222005127 0.0
  outer loop
    vertex -290.3626320821674 1252.5439768873641 4.99999999999982
    vertex -290.43078042958933 1253.0616149775692 -1.8047785488306544e-13
    vertex -290.43078042958933 1253.0616149775692 4.99999999999982
  endloop
endfacet
facet normal -0.6087614290087208 -0.793353340291235 -0.0
  outer loop
    vertex -287.0165668672162 1254.4758285399423 4.99999999999982
    vertex -287.43078042958933 1254.793665785138 -1.8047785488306544e-13
    vertex -287.0165668672162 1254.4758285399423 -1.8047785488306544e-13
  endloop
endfacet
facet normal -0.6087614290087208 -0.793353340291235 -0.0
  outer loop
    vertex -287.43078042958933 1254.793665785138 -1.8047785488306544e-13
    vertex -287.0165668672162 1254.4758285399423 4.99999999999982
    vertex -287.43078042958933 1254.793665785138 4.99999999999982
  endloop
endfacet
facet normal 0.923879532511287 0.3826834323650892 0.0
  outer loop
    vertex -290.3626320821674 1252.5439768873641 -1.8047785488306544e-13
    vertex -290.1628312371582 1252.0616149775692 4.99999999999982
    vertex -290.1628312371582 1252.0616149775692 -1.8047785488306544e-13
  endloop
endfacet
facet normal 0.923879532511287 0.3826834323650892 0.0
  outer loop
    vertex -290.1628312371582 1252.0616149775692 4.99999999999982
    vertex -290.3626320821674 1252.5439768873641 -1.8047785488306544e-13
    vertex -290.3626320821674 1252.5439768873641 4.99999999999982
  endloop
endfacet
facet normal -0.9914448613738106 -0.1305261922200515 -0.0
  outer loop
    vertex -293.4307804295893 1253.0616149775692 4.99999999999982
    vertex -293.26040956103463 1251.7675197520566 -1.8047785488306544e-13
    vertex -293.26040956103463 1251.7675197520566 4.99999999999982
  endloop
endfacet
facet normal -0.9914448613738106 -0.1305261922200515 -0.0
  outer loop
    vertex -293.26040956103463 1251.7675197520566 -1.8047785488306544e-13
    vertex -293.4307804295893 1253.0616149775692 4.99999999999982
    vertex -293.4307804295893 1253.0616149775692 -1.8047785488306544e-13
  endloop
endfacet
facet normal 0.6087614290087208 0.793353340291235 0.0
  outer loop
    vertex -289.8449939919624 1251.647401415196 4.99999999999982
    vertex -289.43078042958933 1251.3295641700004 -1.8047785488306544e-13
    vertex -289.8449939919624 1251.647401415196 -1.8047785488306544e-13
  endloop
endfacet
facet normal 0.6087614290087208 0.793353340291235 0.0
  outer loop
    vertex -289.43078042958933 1251.3295641700004 -1.8047785488306544e-13
    vertex -289.8449939919624 1251.647401415196 4.99999999999982
    vertex -289.43078042958933 1251.3295641700004 4.99999999999982
  endloop
endfacet
facet normal 0.059892290727946634 0.9982048454657787 0.0
  outer loop
    vertex -288.43078042958933 1258.0616149775694 4.99999999999982
    vertex -238.4307804295893 1255.0616149775692 -1.8047785488306544e-13
    vertex -288.43078042958933 1258.0616149775694 -1.8047785488306544e-13
  endloop
endfacet
facet normal 0.059892290727946634 0.9982048454657787 0.0
  outer loop
    vertex -238.4307804295893 1255.0616149775692 -1.8047785488306544e-13
    vertex -288.43078042958933 1258.0616149775694 4.99999999999982
    vertex -238.4307804295893 1255.0616149775692 4.99999999999982
  endloop
endfacet
facet normal 0.9238795325112865 -0.3826834323650905 0.0
  outer loop
    vertex -290.1628312371582 1254.0616149775694 -1.8047785488306544e-13
    vertex -290.3626320821674 1253.5792530677743 4.99999999999982
    vertex -290.3626320821674 1253.5792530677743 -1.8047785488306544e-13
  endloop
endfacet
facet normal 0.9238795325112865 -0.3826834323650905 0.0
  outer loop
    vertex -290.3626320821674 1253.5792530677743 4.99999999999982
    vertex -290.1628312371582 1254.0616149775694 -1.8047785488306544e-13
    vertex -290.1628312371582 1254.0616149775694 4.99999999999982
  endloop
endfacet
facet normal 0.7933533402912375 -0.6087614290087178 0.0
  outer loop
    vertex -236.69872962202044 1252.0616149775692 -1.8047785488306544e-13
    vertex -237.0165668672162 1251.647401415196 4.99999999999982
    vertex -237.0165668672162 1251.647401415196 -1.8047785488306544e-13
  endloop
endfacet
facet normal 0.7933533402912375 -0.6087614290087178 0.0
  outer loop
    vertex -237.0165668672162 1251.647401415196 4.99999999999982
    vertex -236.69872962202044 1252.0616149775692 -1.8047785488306544e-13
    vertex -236.69872962202044 1252.0616149775692 4.99999999999982
  endloop
endfacet
facet normal 0.7933533402912355 0.6087614290087204 0.0
  outer loop
    vertex -290.1628312371582 1252.0616149775692 -1.8047785488306544e-13
    vertex -289.8449939919624 1251.647401415196 4.99999999999982
    vertex -289.8449939919624 1251.647401415196 -1.8047785488306544e-13
  endloop
endfacet
facet normal 0.7933533402912355 0.6087614290087204 0.0
  outer loop
    vertex -289.8449939919624 1251.647401415196 4.99999999999982
    vertex -290.1628312371582 1252.0616149775692 -1.8047785488306544e-13
    vertex -290.1628312371582 1252.0616149775692 4.99999999999982
  endloop
endfacet
facet normal -0.9914448613738105 0.13052619222005213 0.0
  outer loop
    vertex -293.26040956103463 1254.3557102030818 4.99999999999982
    vertex -293.4307804295893 1253.0616149775692 -1.8047785488306544e-13
    vertex -293.4307804295893 1253.0616149775692 4.99999999999982
  endloop
endfacet
facet normal -0.9914448613738105 0.13052619222005213 0.0
  outer loop
    vertex -293.4307804295893 1253.0616149775692 -1.8047785488306544e-13
    vertex -293.26040956103463 1254.3557102030818 4.99999999999982
    vertex -293.26040956103463 1254.3557102030818 -1.8047785488306544e-13
  endloop
endfacet
facet normal 0.38268343236508956 -0.9238795325112868 0.0
  outer loop
    vertex -237.4307804295893 1251.3295641700004 4.99999999999982
    vertex -237.91314233938425 1251.129763324991 -1.8047785488306544e-13
    vertex -237.4307804295893 1251.3295641700004 -1.8047785488306544e-13
  endloop
endfacet
facet normal 0.38268343236508956 -0.9238795325112868 0.0
  outer loop
    vertex -237.91314233938425 1251.129763324991 -1.8047785488306544e-13
    vertex -237.4307804295893 1251.3295641700004 4.99999999999982
    vertex -237.91314233938425 1251.129763324991 4.99999999999982
  endloop
endfacet
facet normal 0.9914448613738104 -0.13052619222005168 0.0
  outer loop
    vertex -236.4307804295893 1253.0616149775692 -1.8047785488306544e-13
    vertex -236.4989287770112 1252.5439768873641 4.99999999999982
    vertex -236.4989287770112 1252.5439768873641 -1.8047785488306544e-13
  endloop
endfacet
facet normal 0.9914448613738104 -0.13052619222005168 0.0
  outer loop
    vertex -236.4989287770112 1252.5439768873641 4.99999999999982
    vertex -236.4307804295893 1253.0616149775692 -1.8047785488306544e-13
    vertex -236.4307804295893 1253.0616149775692 4.99999999999982
  endloop
endfacet
facet normal -0.793353340291235 0.6087614290087209 0.0
  outer loop
    vertex -291.96631433552204 1256.597148883502 4.99999999999982
    vertex -292.7609074485115 1255.5616149775692 -1.8047785488306544e-13
    vertex -292.7609074485115 1255.5616149775692 4.99999999999982
  endloop
endfacet
facet normal -0.793353340291235 0.6087614290087209 0.0
  outer loop
    vertex -292.7609074485115 1255.5616149775692 -1.8047785488306544e-13
    vertex -291.96631433552204 1256.597148883502 4.99999999999982
    vertex -291.96631433552204 1256.597148883502 -1.8047785488306544e-13
  endloop
endfacet
endsolid Station meteo2
